<svg xmlns="http://www.w3.org/2000/svg" viewBox="0 0 1010 198"><path d="M91.959 198c1.904 0 2.72-1.086 3.265-2.716l17.412-52.963 17.413 52.963c.544 1.63 1.36 2.716 3.264 2.716h88.967c2.177 0 3.265-1.358 2.449-3.53L158.616 1.63C158.344.543 157.256 0 156.167 0H69.65c-1.36 0-2.177.543-2.72 1.63L.27 194.47C-.545 196.641.543 198 2.72 198h89.239Zm339.53 0a2.433 2.433 0 0 0 2.442-2.444v-80.667a2.433 2.433 0 0 0-2.443-2.445h-45.323c-.271 0-1.085 0-1.357-.543-.271-.543 0-1.086.272-1.63l48.308-105.11C435.016 1.63 433.117 0 430.946 0H241.512c-1.357 0-2.443 1.358-2.443 2.716v80.667a2.433 2.433 0 0 0 2.443 2.444h45.865c.272 0 1.086 0 1.357.543.272.544 0 1.087-.27 1.63l-48.852 105.111c-1.628 3.26.271 4.889 2.442 4.889h189.434ZM551 198c55.264 0 101-43.728 101-98.321V2.716C652 1.086 650.911 0 649.278 0h-88.75c-1.36 0-2.45 1.086-2.45 2.716v95.333c0 4.074-3.267 7.062-7.078 7.062-3.811 0-7.078-2.988-7.078-7.062V2.716c0-1.63-1.09-2.716-2.45-2.716h-88.75C451.09 0 450 1.086 450 2.716v96.963C450 154.272 495.736 198 551 198Zm214.206 0c1.627 0 2.712-1.086 2.712-2.716V130.37h7.593l27.12 64.914c.813 1.63 1.356 2.716 3.525 2.716h91.935c1.899 0 2.44-.815 1.356-3.26L859.31 99.408 899.447 3.26C900.532.815 899.99 0 898.091 0h-91.663c-2.17 0-2.712 1.086-3.526 2.716l-27.933 66.815h-7.051V2.716c0-1.358-1.085-2.716-2.712-2.716h-89.494C674.085 0 673 .815 673 2.716v192.568c0 1.63 1.085 2.716 2.712 2.716h89.494Zm242.08 0c1.357 0 2.714-1.086 2.714-2.716V2.714c0-1.357-1.357-2.714-2.714-2.714h-89.572C916.357 0 915 1.357 915 2.715v192.569c0 1.63 1.357 2.716 2.714 2.716h89.572Z" fill="#FFF" fill-rule="nonzero"/></svg>