<?xml version="1.0" encoding="UTF-8"?><svg id="Layer_2" xmlns="http://www.w3.org/2000/svg" viewBox="0 0 618.07 419.26"><defs><style>.cls-1{fill:#fff;}</style></defs><g id="Layer_1-2"><g><path class="cls-1" d="M243.84,313.9l14.99-.43c3.61-.58,6.1-3.84,5.57-7.27s-3.88-5.75-7.49-5.17l-14.58,2.86c-2.65,.44-4.46,3.03-4.04,5.8,.42,2.77,2.9,4.66,5.55,4.22Z"/><path class="cls-1" d="M617.71,342.43c-.76-4.99-3.03-10.32-6.72-14.3,2.85-6.81,2.08-13.45,1.72-16.57-.07-.64-.18-1.52-.18-1.82,.01-6.05-2.05-11.68-5.82-16.01,2.25-3.87,3.57-8.25,3.48-12.85-.19-10.03-7.24-22.1-26.46-23.12-3.76-.2-7.38-.3-11.05-.3-8.86,0-17.91,.56-27.67,1.73-14.55,1.73-27.06,8.1-36.64,17.93-5.92-11.91-17.15-18.44-32.65-18.44-6.91,0-14.02,1.22-20.9,2.4-2.18,.37-4.39,.75-6.6,1.09-23.69,3.63-39.35,12.71-49.25,21.2-8.86-18.78-28.84-31.91-52.01-31.91-18.57,0-35.09,8.43-45.48,21.43-9.02-7.54-22.01-11.86-37.38-11.86-4.74,0-9.61,.42-14.48,1.25-13.41,2.29-28.14,6.14-38.03,15.24-10.22-14.4-27.62-23.9-47.34-23.9-14.78,0-28.27,5.34-38.4,14.08-6.3-5.89-14.99-9.02-25.73-9.02-6.91,0-14.02,1.22-20.9,2.4-2.18,.37-4.39,.75-6.6,1.09-28.76,4.4-45.7,16.85-54.84,26.51C6.56,300.54,.12,315.4,.12,329.44c0,1.07-.02,2.29-.05,3.63-.26,14.66-.74,41.95,17.51,60.53,10.68,10.87,25.46,16.38,43.93,16.38h.91c12.85-.13,21.75-4.59,28.1-10.35,6.55,7.58,15.36,12.16,25.18,12.16,4.65,0,9.49-1.05,14.12-3,5.8,6.46,14.49,10.47,24.08,10.47,7.55,0,14.57-2.51,20.05-6.76,4.63,3.8,10.45,6.03,16.74,6.03,11.16,0,20.76-7.11,24.93-17.25,6.69,5.55,14.9,8.75,23.93,8.75,9.79,0,19.36-4.93,27.32-11.48,6.63,8.26,15.83,13.3,26.13,13.3,6.4,0,13.15-1.99,19.24-5.56,5.8,6.66,14.62,10.82,24.38,10.82,7.55,0,14.57-2.51,20.05-6.76,4.63,3.8,10.45,6.03,16.74,6.03,11.43,0,21.23-7.47,25.22-18,10.07,7.7,22.97,11.61,38.49,11.61h.91c12.85-.13,21.75-4.59,28.1-10.35,6.55,7.58,15.36,12.16,25.18,12.16,6.35,0,13.05-1.96,19.11-5.49,5.53,3.15,11.92,4.79,18.87,4.79h0c7.47,0,15.52-1.82,24.6-5.56,45.83-18.89,67.31-40.12,63.82-63.1Zm-488.5,46.19c-4.13,3.37-9.34,5.4-13.52,5.4-10.13,0-19.07-12.23-19.09-28.29-2.82-.36-5.99,1.04-7.44,4.35-5.21,10.33-9.77,21.95-26.92,22.12-48.95,.48-44.35-46.41-44.35-62.76s15.01-43.21,57.42-49.71c22.17-3.39,43.54-10.51,44.43,18.89,1.06,35.26-14.29,31.6-32.93,34.99-9.93,1.8-21.2,2.38-30.11-.58,4.82,6.9,16.3,8.63,31.13,9.83,10.08,.82,19.49-.68,26.61-3.55,2.1,4.84,7.06,15.91,8.51,19.84,2.05,5.59,6.84,24.52,6.84,24.52,.43,2.05,.14,3.66-.58,4.95Zm70.83,1.4c0,5.93-4.19,10.74-9.36,10.74-4.6,0-8.41-3.8-9.2-8.81l-2.59-11.99c-.4-1.63-1.86-2.79-3.54-2.79h-2.56c-1.8,0-3.33,1.31-3.6,3.09l-1.78,11.6h-.06c-1.1,5.46-6.69,9.62-13.44,9.62s-12.44-4.24-13.47-9.78c0,0-15.3-74.05-15.3-84.48,0-19.8,17.52-35.85,39.13-35.85s39.13,16.05,39.13,35.85c0,.41-3.34,82.78-3.34,82.78Zm106.46-1.34c-4.13,3.37-9.34,5.4-13.52,5.4-10.13,0-19.07-12.23-19.09-28.29-2.82-.36-4.01,1.14-4.45,1.94-3.83,9.24-19.09,24.53-29.91,24.53-14.39,0-23.12-14.79-23.46-30.55,0,0,1.18-50.44,1.78-58.43l.06-.02c.83-10.62,7.19-18.78,34.68-23.47,22.11-3.77,42.01,3.27,44.43,18.89,2.37,15.32-14.29,31.6-32.93,34.99-9.93,1.8-21.2,2.38-30.11-.58,4.82,6.9,16.3,8.63,31.13,9.83,10.08,.82,19.49-.68,26.61-3.55,2.1,4.84,7.06,15.91,8.51,19.84,2.05,5.59,6.84,24.52,6.84,24.52,.43,2.05,.14,3.66-.58,4.95Zm76.25-.82c0,5.93-4.19,10.74-9.36,10.74-4.6,0-8.41-3.8-9.2-8.81l-2.59-11.99c-.4-1.63-1.86-2.79-3.54-2.79h-2.56c-1.8,0-3.33,1.31-3.6,3.09l-1.78,11.6h-.06c-1.1,5.46-6.69,9.62-13.44,9.62s-12.44-4.24-13.47-9.78c0,0-15.3-74.05-15.3-84.48,0-19.8,17.52-35.85,39.13-35.85s39.13,16.05,39.13,35.85c0,.41-3.34,82.78-3.34,82.78Zm122.05,.76c-4.13,3.37-9.34,5.4-13.52,5.4-10.13,0-19.07-12.23-19.09-28.29-2.82-.36-5.99,1.04-7.44,4.35-5.21,10.33-9.77,21.95-26.92,22.12-48.95,.48-44.35-46.41-44.35-62.76s15.01-43.21,57.42-49.71c22.17-3.39,43.54-10.51,44.43,18.89,1.06,35.26-14.29,31.6-32.93,34.99-9.93,1.8-21.2,2.38-30.11-.58,4.82,6.9,16.3,8.63,31.13,9.83,10.08,.82,19.49-.68,26.61-3.55,2.1,4.84,7.06,15.91,8.51,19.84,2.05,5.59,6.84,24.52,6.84,24.52,.43,2.05,.14,3.66-.58,4.95Zm42.3,.48c-43.5,17.92-41.51-25.13-41.51-56.13s16.2-53.12,41.51-56.13c15.68-1.87,27.16-1.78,35.67-1.33,17.76,.95,7.06,15.31-1.17,16.07-9.89,.91-27.34,4.43-31.52,5.29-4.05,.84-13.75,3.43-14.03,6.16-.26,2.61,2.68,2.83,6.34,2.49,0,0,42.65-2.08,45.49-2.16,4.09-.12,6.87,2.25,6.86,6.35-.01,6.32,3.57,12.59-6.84,17.09-2.09,.9-15.69,4.39-23.52,6.17-4.7,1.07-27.86,4.3-27.47,8.42,.29,3.03,5.55,3.15,9.82,2.75,0,0,41.15-5.29,50.52-4.45,1.52,.14,18.72,21.03-50.16,49.41Z"/><path class="cls-1" d="M354.48,305.07c-3.65,.16-6.5,3.53-6.36,7.53l2.77,36.93c.11,2.94,2.59,5.23,5.53,5.11,2.94-.12,5.23-2.59,5.11-5.53l-.19-37.08c-.14-4-3.22-7.12-6.87-6.96Z"/><path class="cls-1" d="M171.77,307.23c-3.65,.16-6.5,3.53-6.35,7.53l2.77,36.93c.11,2.94,2.59,5.23,5.53,5.11s5.23-2.59,5.11-5.53l-.19-37.08c-.14-4-3.22-7.12-6.87-6.96Z"/></g><g><path class="cls-1" d="M316.83,236.86c-3.88,.6-4.85-.1-4.31-3.67,.64-4.22,1.68-8.38,2.67-12.54,.74-3.09,1.67-6.14,2.52-9.21,2-7.19,4.05-14.36,5.97-21.56,2.02-7.53,3.87-15.1,5.88-22.63,1.47-5.49,3.18-10.91,4.6-16.41,1.59-6.14,3.06-12.32,4.38-18.52,.51-2.39,2.98-12.6,3.17-14.84,.13-1.49,.81-2.92,1.19-4.39,1.82-6.89,3.48-13.83,5.46-20.67,1.67-5.77,3.63-11.45,5.61-17.12,2.17-6.2,4.33-12.42,6.82-18.49,3.91-9.52,8.1-18.91,12.14-28.37,.42-.98,.61-2.05,.99-3.33-4.77-.6-9.18-1.18-13.6-1.72-5-.61-10-1.19-15-1.8-7.34-.91-14.69-1.73-22-2.79-5.95-.86-11.86-2.08-17.8-3.03-2.91-.47-5.87-.65-8.8-1.04-3.47-.46-6.93-1.02-10.39-1.53-5.66-.83-11.3-1.72-16.97-2.47-8.6-1.13-17.22-2.1-25.81-3.27-2.68-.36-5.31-1.13-8.18-1.76l.81-2.06-2.79-1.05c1.52-.55,2.25-.98,3.02-1.07,4.48-.52,8.95-1.22,13.45-1.37,6.37-.22,12.76-.08,19.13-.01,8.25,.09,16.51,.12,24.76,.43,9.22,.35,18.47,.64,27.64,1.56,11.24,1.13,22.41,2.96,33.63,4.36,9.27,1.16,18.56,2.13,27.84,3.2,1.63,.19,3.25,.54,4.89,.67,1.05,.09,2.13-.07,3.19-.11,.53-.02,1.12-.21,1.59-.04,7.21,2.58,14.86,2.64,22.29,3.92,7.25,1.25,14.53,2.28,21.83,3.22,8.46,1.1,16.96,1.95,25.43,3,4.35,.54,8.67,1.32,13.01,1.92,4.53,.63,9.08,1.13,13.6,1.76,5.74,.8,11.49,1.58,17.2,2.54,8.43,1.41,16.85,2.85,25.23,4.5,3.76,.74,7.42,1.98,11.11,3.03,.69,.2,1.32,.59,2.21,1.01-.49,.37-.71,.69-.95,.69-6.45,.24-12.91,.74-19.36,.56-5.53-.16-11.02-1.35-16.55-1.65-5.54-.29-11.11-.04-17.05-.02,.68,1.92,2.41,1.75,3.11,3.19-4.25,.09-8.52,.24-12.79,.26-9.33,.05-18.47-1.9-27.7-2.87-4.11-.43-8.18-1.15-12.28-1.7-6.3-.85-12.6-1.63-18.89-2.5-6.71-.93-13.42-1.94-20.13-2.9-.76-.11-1.53-.18-2.3-.21-2.62-.08-2.85,.11-3.6,2.75-1.74,6.07-3.08,12.3-5.36,18.17-2.43,6.26-4.09,12.76-6.48,19.03-1.98,5.19-3.54,10.54-5.19,15.85-1.67,5.35-3.81,10.52-5.17,15.99-.96,3.88-2.8,7.53-4.01,11.36-1.74,5.52-3.06,11.18-4.92,16.65-2.76,8.11-12.3,40.24-13.21,44.67-.81,3.95-2.35,7.74-3.52,11.61-.44,1.45-.74,2.94-1.07,4.42-.12,.53-.05,1.12-.23,1.63-3.01,8.77-5.91,17.57-9.14,26.26-1.24,3.35-3.19,6.44-4.94,9.59-.46,.82-1.26,1.64-2.11,2.03-2.1,.97-2.55,2.71-2.99,4.74-.79,3.7-1.5,7.49-4.1,10.51-.49,.56-.94,1.21-1.56,1.6-2.67,1.67-5.2,.35-5.32-2.78-.06-1.63,.1-3.28,.17-5.17Z"/><path class="cls-1" d="M256.82,161.69c-1.4,.44-.91,8.18-.85,9.49,.18,3.64-.05,8.49-.11,12.34-.08,5.21-.61,10.42-1.13,15.61-.28,2.8-.94,5.56-1.39,8.34-.41,2.55-.71,5.12-1.18,7.66-1.25,6.75-2.6,13.48-3.84,20.23-.76,4.1-1.4,8.21-2.09,12.32-.35,2.06-.6,4.14-1.06,6.18-.22,.96-.84,1.83-1.27,2.74l-.68-.18c-.36-2.45-.71-4.9-1.07-7.36l-.37-.05c-.91,4.67-1.82,9.33-2.76,14.18-1.62-.66-1.61-1.99-1.77-3.07-.91-5.97-1.79-11.94-2.57-17.92-.66-5.04-1.49-10.09-1.64-15.15-.15-5.24,.43-10.51,.68-15.77,.13-2.73,.25-5.46,.37-8.19,.14-2.96,.28-5.91,.43-8.86,.14-2.92,.05-5.88,.49-8.76,1.04-6.79,3.15-29.74,3.66-34.37,.65-5.99,1.42-11.97,2.1-17.97,.44-3.89,2.98-28.4,3.24-31.3,.49-5.43,2.08-23.63,2.34-27.3,.15-2.13-.14-4.37,2.57-5.42,.56-.22,.73-1.66,.93-2.58,.3-1.37,.27-2.84,.73-4.13,.59-1.65,2.32-2.5,3.97-2.03,1.53,.44,3.09,.81,4.26,2.23,.77,.94,2.35,1.23,3.1,2.18,1.16,1.49,2.35,3.19,2.76,4.97,.82,3.59,2.38,7.15,1.33,10.98,1.51,4.57,.9,9.35,1.23,14.02,.49,6.96,.97,13.92,1.5,20.87,.81,10.78,3.31,21.27,4.8,31.92,.57,4.08,1.3,8.09,2.23,12.11,1.68,7.32,2.99,14.73,4.35,22.12,1.17,6.33,2.19,12.7,3.29,19.04,.24,1.37,.5,2.73,1.41,4.15,.26-.6,.66-1.18,.74-1.81,.53-4.11,.85-8.24,2.27-12.21,.42-1.19,.08-2.63,.35-3.89,1.55-7.1,3.22-14.18,4.78-21.27,.98-4.45,1.84-8.94,2.78-13.4,.18-.85,.41-1.72,.79-2.5,1.65-3.36,2.08-7.06,3.09-10.59,.78-2.72,1.86-5.35,2.57-8.09,1.01-3.88,1.78-7.81,2.68-11.72,.17-.74,.41-1.47,.69-2.18,.76-1.89,2.36-8.95,2.82-10.49,.93-3.13,4.65-16.52,5.68-20.06,.42-1.44,1.1-2.81,1.67-4.22,.19-.48,9.24-28.46,9.96-28.77,6.45-2.77,12.98-5.34,20.38-7.65-.63,3.06-1.13,5.54-1.67,8.02-.66,3.08-1.34,6.16-2.03,9.23-.24,1.06-2.15,7.38-2.96,9.38-1.59,3.9-5.67,18.21-6.64,20.57-2.15,5.23-12.62,42.57-13.08,45.86-.44,3.13-3.56,14.95-4.71,17.79-1.74,4.27-2.01,8.92-3.99,13.15-1.25,2.68-1.52,5.82-2.32,8.73-.4,1.45-1,2.85-1.51,4.27-.18,.51-.47,1.01-.53,1.54-.38,3.23-2.02,6.13-2.6,9.26-1.05,5.67-4.15,10.76-4.32,16.73-.07,2.56-1.48,5.07-2.21,7.62-.96,3.36-1.58,6.85-2.84,10.09-1.01,2.61-1.98,5.25-2.4,7.94-.56,3.51-.43,7.11,.19,10.69,.95,5.5,1.73,11.03,2.52,16.55,.08,.58-.31,1.23-.47,1.84-.26,.05-.51,.09-.77,.14-.76-1.15-1.54-2.28-2.26-3.46-2.52-4.12-4.99-8.27-7.51-12.4-1.05-1.72-4.89-6.23-5.02-7.62-.07-.74-6.02-15.47-8.1-22.36-2.26-7.49-4.3-15.05-6.67-22.51-.9-2.84-1.39-5.66-1.86-8.58-.36-2.26-1.56-4.46-1.92-6.9-.57-3.86-1.59-7.66-2.43-11.48-.04-.2-.9-8.15-1.1-8.57Z"/><path class="cls-1" d="M144.65,54.86c5.78-2.86,11.84-5.18,17.11-9.02,4.85-3.54,9.7-7.1,14.71-10.4,4.09-2.69,8.42-5.04,12.68-7.47,.86-.49,1.9-.69,2.88-1.04,.67,1.67-.14,2.49-.86,3.26-4.39,4.69-8.84,9.3-14.01,13.17-1.91,1.43-3.52,3.27-5.26,4.92-1.07,.8-2.14,1.6-3.21,2.4l.18,.29c1.23-.64,2.47-1.29,3.7-1.93,1.8-.8,3.59-1.65,5.41-2.39,1.07-.44,2.21-.72,3.61-.6-.69,.8-1.32,1.65-2.06,2.4-3.31,3.34-6.57,6.74-10.02,9.92-2.25,2.07-4.75,3.87-7.24,5.65-4.57,3.27-9.25,6.39-13.81,9.67-3.13,2.25-6.06,4.76-9.2,6.99-6.69,4.76-13.46,9.4-20.18,14.11-2.83,1.99-5.6,4.06-8.43,6.04-6.59,4.62-13.19,9.21-19.79,13.83-2.84,1.99-5.67,3.99-8.62,6.07,1.52,7.62,3.01,15.11,4.58,22.96,1.2-.68,2.17-1.12,3.01-1.73,6.11-4.37,12.06-8.97,18.32-13.1,7.76-5.11,15.34-10.62,24.24-13.74,2.04-.72,4.18-1.17,6.25-1.81,1.88-.59,3.7-1.43,5.61-1.87,1.15-.26,2.84-1.53,3.47,.84-.15,.33-.3,.66-.46,.98l1.14-.22c2.53-1.41,4.98-3,7.61-4.19,4.77-2.15,9.65-4.09,14.5-6.06,.44-.18,1.03,.01,1.92,.04-5.7,8.28-13.25,13.99-21.42,19.04,1.14,1.19,1.78,1.95,.32,3.3-6.93,6.39-13.67,13-20.63,19.36-2.31,2.11-5.12,3.68-7.64,5.57-.85,.64-1.47,1.59-2.31,2.25-3.1,2.43-6.17,4.89-9.39,7.15-3.7,2.6-7.59,4.94-11.33,7.49-2.06,1.4-3.97,3.03-6,4.49-.94,.68-1.2,1.47-.96,2.56,1.36,6.18,2.72,12.37,4.04,18.56,1.11,5.23,2.15,10.47,3.22,15.7,1.11,5.44,2.29,10.88,3.33,16.34,1.68,8.73,3.47,17.44,4.07,26.33,.16,2.39,.15,4.8-.23,7.34-.78-1.19-1.56-2.37-2.6-3.96-1.23,3.65,1.03,7.07-.82,10.84-1.03-1.63-1.94-2.79-2.56-4.1-1.59-3.36-3.29-6.69-3.72-10.48-.05-.41-.31-.83-.57-1.18-.18-.25-.5-.39-.97-.73-.3,1.72-.57,3.27-.84,4.81-1.17,.41-1.77-.15-2.13-1.04-2.56-6.39-5.81-12.51-7.32-19.33-1.43-6.48-3.36-12.86-4.83-19.33-2.17-9.57-4.12-19.19-6.22-29.03-.68,.16-1.41,.23-2.06,.5-4.55,1.89-9.07,3.83-13.62,5.73-.39,.16-.91,.32-1.27,.2-.88-.31-2.1-.57-2.46-1.24-.58-1.09,.27-2.06,1.3-2.68,1.39-.83,2.78-1.65,4.57-2.71-2.52-1.1-3.78-2.51-2.38-4.92,.05-.09,.14-.23,.11-.3-1.86-4.57,2.63-4.96,4.65-6.86,1.4-1.32,3.31-2.1,4.93-3.21,.34-.23,.4-.86,.6-1.31,.26,0,.52,0,.77,0l-.03-.3-.71,.37c-2.4,1.06-4.83,2.05-7.19,3.19-1.46,.71-2.61,.23-3.57-.75-1.05-1.08-.51-2.33,.19-3.33,.87-1.25,1.83-2.48,2.98-3.48,2.49-2.16,5.07-4.21,7.7-6.2,1.21-.91,1.56-1.88,1.34-3.38-.9-6.06-1.67-12.13-2.49-18.2-.26-1.92-.52-3.85-.78-5.8-1.82,.02-2.85,.75-3.94,1.77-1.15,1.08-2.69,1.76-4.09,2.57-6.65,3.82-13.23,7.75-19.99,11.37-3.35,1.79-7.04,2.94-10.54,4.48-.99,.43-1.83,1.21-2.75,1.81-1.66,1.08-3.28,2.23-5.01,3.16-.94,.51-2.23,1.12-3.1,.85-2.36-.72-3.78,.65-5.3,1.85-1.73,1.36-3.32,2.88-5.03,4.27-.59,.48-1.33,.76-2.21,1.25-.56-2.11,.68-3,1.52-3.82,4.15-4.09,8.33-8.16,12.69-12.03,5.58-4.96,11.33-9.72,17.02-14.54,.49-.42,1.12-.67,1.69-.99l-.51-.91c-1.47,.43-2.96,.78-4.39,1.3-1.12,.4-2.41,.74-2.88-.45-.31-.78,.1-2.25,.72-2.91,1.11-1.18,2.57-2.05,3.97-2.91,2.33-1.43,4.85-2.59,7.06-4.18,1.76-1.26,3.03-3.18,4.76-4.48,4.83-3.62,9.7-7.19,14.73-10.53,2.44-1.62,3.39-3.46,2.89-6.33-.3-1.72,.01-3.54-.27-5.26-.48-2.94,.28-5.19,3.08-6.54-.38-3.27-.82-6.42-1.08-9.59-.27-3.23-.19-3.24,3.05-4.5,1.71,.58,1.86,2.17,2.33,3.63,1.65,5.1,3.39,10.17,5.11,15.24,.06,.19,.28,.33,.64,.74,2.82-1.89,5.75-3.72,8.53-5.75,5.31-3.87,10.44-7.97,15.8-11.77,7.6-5.38,15.23-10.73,23.05-15.78,5.79-3.74,11.89-6.99,17.86-10.43,.35-.2,.82-.22,1.16-.31,1.6,1.34,.2,2.46-.04,3.63-.21,.24-.41,.48-.62,.72l-.29,.67c.29-.03,.57-.05,.86-.08,.22-.16,.44-.32,.66-.48Z"/><path class="cls-1" d="M397.32,252.29c-2.42-15.52-2.25-30.52-.2-45.8-1.29-.16-2.23-.56-2.92-.31-5.84,2.13-12.14,2.16-18.04,4.01-1.07,.33-2.33,.12-3.5,.04-2.6-.19-4.3,1.42-5.21,3.9-1.16,3.17-1.73,6.68-4.29,9.22-.28,.28-.48,.71-.58,1.11-1.02,3.77-1.96,7.49-4.57,10.68-1.02,1.25-1.27,3.39-2.23,4.89-1.74,2.72-3.62,5.39-5.66,7.89-2,2.45-4.26,4.69-6.43,7-.5,.54-1.12,.97-2.09,1.79-.16-1.12-.4-1.8-.34-2.45,.45-5.01,.93-10.02,1.46-15.02,.1-.96,.5-1.89,.78-2.82,.19-.63,.73-1.31,.6-1.84-.57-2.34,.64-4.33,1.26-6.36,.98-3.22,2.52-6.26,3.72-9.42,1.35-3.54,2.5-7.15,3.88-10.67,1.43-3.66,3.08-7.24,4.56-10.89,1.66-4.08,3.13-8.24,4.88-12.27,1.43-3.28,3.2-6.42,4.73-9.66,1.3-2.76,2.46-5.59,3.71-8.37,1.41-3.15,2.8-6.32,4.29-9.43,2-4.2,4.02-8.38,6.16-12.51,2.19-4.24,4.58-8.39,6.78-12.63,1.39-2.68,2.57-5.45,3.86-8.18,.33-.69,.68-1.37,1.05-2.04,2.85-5.17,5.77-10.3,8.54-15.51,2.19-4.13,4.11-8.4,6.31-12.53,3.28-6.18,6.81-12.23,10.02-18.45,2.67-5.19,5.09-10.52,7.5-15.84,1.58-3.47,2.91-7.05,4.42-10.55,1.02-2.35,3.92-2.8,5.86-.99,.24,.22,.54,.37,.83,.56,1.33,.01,2.43-1.77,3.94-.41,1.51,1.35,2.81,2.72,2.99,4.9,.11,1.4,.5,2.78,.82,4.16,.52,2.25-.28,4.31-.73,6.45-1,4.78-1.81,9.61-2.73,14.41-.97,5.04-1.91,10.09-3,15.11-.73,3.36-2.2,6.62-2.47,9.99-.58,7.41-2.76,14.51-3.8,21.82-.55,3.87-1.91,7.64-2.25,11.51-.24,2.71-.78,5.34-1.16,8-.49,3.41-1.36,6.76-1.98,10.15-.49,2.67-.81,5.36-1.27,8.04-.96,5.59-1.94,11.18-2.94,16.77-.6,3.34-1.11,6.71-1.92,10-1.71,6.98-3.46,13.97-5.45,20.87-1.64,5.67-3.66,11.24-5.52,16.85-.07,.21-.1,.46-.24,.61-3.33,3.44-3.49,8.23-5.29,12.32-1.5,3.41-2.93,6.85-4.46,10.25-.23,.51-.83,.86-1.67,1.68Zm-22.11-55.19l.55,.66c7.2-1.58,14.4-3.16,22.01-4.82,.25-1.3,.68-2.87,.83-4.46,.35-3.75,.49-7.52,.86-11.26,.23-2.39,.73-4.76,1.1-7.14,1.49-9.48,2.98-18.96,4.48-28.44,.57-3.63,1.17-7.26,1.77-11.01-.3,.19-.52,.26-.6,.4-3.35,5.94-17.1,36.24-18.6,39.73-2.42,5.62-5.15,11.1-7.76,16.63-1.53,3.24-3.08,6.48-4.62,9.71Z"/><path class="cls-1" d="M532.99,165.15c2.05-5.54,4.99-10.6,7.87-15.71,1.75-3.1,3.23-6.35,4.96-9.46,1.05-1.88,2.28-3.64,3.31-5.56,3.41-6.39,7.25-12.56,10.8-18.88,3.63-6.46,7.11-13.01,10.67-19.52,3.09-5.64,6.45-11.1,10.21-16.34,2.27-3.16,3.89-6.78,6.06-10.03,2.49-3.72,5.17-7.33,7.92-10.86,1.87-2.41,3.91-4.72,6.08-6.85,1.12-1.11,2.61-2.1,4.11-2.52,2.84-.8,4.91,1.52,3.93,4.25-.44,1.21-1.19,2.31-1.83,3.44-.58,1.04-1.19,2.06-1.77,3.05,.1,.25,.13,.54,.27,.64,3.41,2.19,3.29,2.1,.81,5.53-1.78,2.46-3.15,5.21-4.74,7.82-1.47,2.41-2.99,4.8-4.48,7.19-3.7,5.93-7.43,11.84-11.08,17.8-3.18,5.18-6.42,10.33-9.36,15.64-2.51,4.54-4.43,9.41-7,13.91-2.02,3.53-14.36,27.1-15.92,30.17-1.18,2.33-2.44,4.61-3.63,6.94-1.2,2.35-2.35,4.72-3.53,7.08-.83,1.66-1.69,3.31-2.52,4.98-1.83,3.69-3.56,7.44-5.49,11.08-2,3.76-10.82,20.16-11.58,21.32-2.65,4.05-5.21,8.18-8.08,12.07-4.99,6.76-27.81,31.21-32.54,34.82-1.38,1.05-2.66,2.23-4,3.35-.87,.73-1.75,1.45-3,2.48-.23-1.21-.49-1.81-.44-2.39,.64-6.56,1.27-13.13,4.67-18.99,1.25-2.15,2.71-4.18,4.09-6.26,1.6-2.42,3.2-4.84,4.82-7.24,3.04-4.52,6.11-9.02,9.15-13.54,3.57-5.31,7.11-10.64,10.67-15.96-3.45-3.81-5.23-8.3-5.91-13.11-.45-3.2-.28-6.52-.07-9.77,.61-9.5,1.44-18.98,3.59-28.3,1.71-7.45,3-15,4.95-22.39,1.69-6.41,4.07-12.64,6.07-18.97,.82-2.59,1.33-5.29,2.17-7.87,2.94-9,6.23-17.9,8.82-27,.82-2.88,1.51-5.23,4.16-6.8,.52-.31,.65-1.35,.84-2.09,.59-2.23,1.22-4.46,1.64-6.72,.45-2.41,1.6-4.02,4.2-4.5,3.02,1.33,3.84,4.13,3.69,6.99-.28,5.24-.78,10.49-1.63,15.67-1.23,7.54-2.62,15.06-4.36,22.5-1.74,7.45-6.69,42.72-7.72,48.59-.64,3.61-2.82,24.84-3.04,25.14,.15,.07,2.66-3.4,3.19-4.82Z"/><path class="cls-1" d="M213.96,195c-.08,2.3,1.33,4.66,1.21,6.95-.15,2.96,.55,5.7,.98,8.53,.54,3.57,.76,7.18,1.06,10.78,.05,.59-.23,1.2-.3,1.81-.05,.47-.19,1.1,.04,1.4,1.35,1.78,1.2,3.9,1.55,5.93,.66,3.83-.07,7.88,1.78,11.52,.05,.1,.18,.2,.17,.28-.97,5.53,3.04,10.81,.81,16.39,.78,4.42,.07,8.86,.05,13.28-.01,2.85-.08,5.7-.21,8.55-.03,.76-.39,1.51-.6,2.26l-.75,.11c-1.3-1.97-2.66-3.9-3.88-5.91-2.25-3.71-4.61-7.38-6.6-11.24-3.9-7.56-5.92-15.79-7.14-24.12-.53-3.59-1.6-7.03-2.06-10.58-.73-5.6-1.29-11.23-1.84-16.85-.39-4.04-.56-8.11-1.02-12.14-.11-.92-.63-2.11-2.23-1.68-2.39,.64-4.82,1.08-7.23,1.67-3.18,.77-6.31,1.75-9.52,2.34-1.34,.25-2.27,.59-2.81,1.84-1.15,2.7-2.35,5.38-3.47,8.09-2.37,5.77-4.71,11.55-7.05,17.32-.37,.91-.64,1.86-1.04,2.75-.46,1.02-1,2-2.82,1.49-.07-1.47-.14-3.02-.2-4.58l-.49-.13c-1.12,2.79-2.2,5.6-3.36,8.38-1.16,2.79-2.3,5.59-3.59,8.32-1.33,2.84-2.83,5.6-4.25,8.39l-.66-.14c.02-2.59-.08-5.19,.09-7.78,.45-6.88,1.01-13.76,1.52-20.63,.03-.44-.01-.9,.1-1.32,1.04-3.86,2.14-7.71,3.14-11.58,.38-1.48,.44-3.05,.85-4.52,1.56-5.57,3.24-11.1,4.82-16.66,1.24-4.38,2.34-8.81,3.61-13.18,1.79-6.16,3.73-12.28,5.52-18.44,2.07-7.13,3.97-14.31,6.11-21.42,1.93-6.44,4.11-12.81,6.11-19.23,1.52-4.87,2.85-9.79,4.41-14.64,1.67-5.2,3.72-10.29,5.19-15.55,.98-3.52,2.53-7.03,2.07-10.81-.21-1.69,.68-2.54,1.84-3.1,1.79-.88,2.93-2.14,3.68-3.99,.42-1.05,1.22-2.24,2.18-2.71,2.4-1.18,4.87,.31,5.09,3.05,.15,1.83-.15,3.7-.33,5.55-.55,5.58-.82,11.1,.02,16.73,.8,5.39,.69,10.91,1.11,16.36,.46,5.98,1.07,11.95,1.62,17.92,.6,6.51,1.13,13.04,1.81,19.54,.38,3.67,1.09,7.31,1.51,10.98,.6,5.28,1.03,10.58,1.6,15.86,.33,3.03,1.88,15.83,1.78,18.59Zm-21.81-49.96l-.67-.05c-1.24,4.33-2.74,8.6-3.66,12.99-1.19,5.71-3.22,11.22-4,17.03-.15,1.14-.91,2.19-1.24,3.33-.76,2.59-1.43,5.21-2.13,7.82-.55,2.04-1.1,4.08-1.8,6.69,5.89-1.63,11.51-2.95,16.76-5.06-1.1-14.45-2.17-28.6-3.25-42.76Z"/><path class="cls-1" d="M485.43,63.65c.85-3.52,1.62-6.64,2.33-9.78,.14-.63-.05-1.33,.08-1.96,.5-2.5,2.14-3.16,4.32-1.88,.8,.47,1.74,.78,2.66,.95,1.63,.3,2.65,1.22,2.7,2.81,.11,3.06,.58,6.07,.92,9.09,.25,2.24-.61,4.7-1.35,6.94-2.76,8.35-5.81,16.6-8.48,24.97-2.59,8.12-4.82,16.35-7.23,24.52-1.02,3.46-2.14,6.88-3.11,10.35-.55,1.98-.83,4.04-1.32,6.04-.49,1.98-1.09,3.93-1.78,6.37,.97-.24,1.9-.3,2.67-.69,4.11-2.05,8.22-4.11,12.23-6.34,.95-.53,1.72-1.62,2.27-2.61,1.97-3.53,4.51-4.3,8.04-2.31,.47,.26,.99,.43,1.5,.61,3.66,1.29,4.61,3.18,3.48,6.99-1.03,3.49-2.53,6.79-3.99,10.11-2.17,4.93-3.98,10.04-6.45,14.82-1.47,2.85-5.74,13.46-6.6,15.85-1.64,4.56-3.42,9.06-5.15,13.58-.42,1.09-.9,2.14-1.32,3.23-1.85,4.84-3.49,9.73-6.41,14.12-1.77,2.67-2.83,5.8-4.39,8.63-3.12,5.65-6.36,11.24-9.55,16.85-.05,.1-.11,.2-.19,.27-7.28,5.95-10.22,14.75-14.72,22.53-.7,1.21-1.37,1.58-2.82,1.02,.09-.91,.06-1.89,.28-2.81,1.67-6.82,3.19-13.69,5.17-20.42,1.6-5.45,3.73-10.75,5.72-16.09,2.29-6.16,4.54-12.35,7.07-18.41,3.09-7.39,6.48-14.66,9.73-21.99,1.95-4.4,3.86-8.82,5.82-13.22,.59-1.33,1.29-2.62,2.27-4.57-1.1,.46-1.59,.56-1.94,.83-2.26,1.69-4.28,3.86-6.77,5.04-4.03,1.91-6.94,5.19-10.56,7.57-3.75,2.46-7.23,5.35-11.08,7.63-4.42,2.61-18,9.02-19.52,8.3-1.35-.64-1.47-1.82-1.28-3.09,.72-4.74,.71-9.59,2.29-14.2,1.45-4.24,2.76-8.52,4.1-12.79,1.67-5.3,3.21-10.65,5.01-15.91,2.62-7.66,5.28-15.31,8.18-22.87,2.49-6.51,5.25-12.93,8.05-19.32,1.76-4,3.83-7.87,5.73-11.81,1.19-2.45,2.32-4.92,3.5-7.38,.74-1.54,1.47-3.07,2.26-4.58,2.24-4.26,4.35-8.6,6.84-12.72,1.03-1.71,2.68-3.31,4.43-4.26,1.98-1.06,3.96,.22,6.34,2Zm-41.67,100.74c1.86,.97,2.55-.89,3.51-1.65,7.53-5.98,14.35-12.87,23.39-17.4-.46-1.46-.47-3.39-1.42-4.15-1.8-1.44-2.33-3.37-3.09-5.24-1.28-3.18-.96-6.43-.29-9.71,1.06-5.17,1.9-10.38,3.06-15.52,.47-2.09,1.59-4.02,2.31-6.06,.46-1.32,.73-2.71,1.09-4.07-.84,.35-1.28,.84-1.52,1.41-1.06,2.46-2.01,4.97-3.09,7.42-.91,2.07-1.91,4.11-2.94,6.13-1.11,2.17-6.8,16.34-7.81,19.69-1.44,4.79-4.62,8.71-5.97,13.48-.06,.2-.24,.36-.35,.56-.84,1.51-1.81,2.97-2.5,4.54-1.52,3.51-2.9,7.08-4.32,10.64l.08,.2-.13-.25Z"/></g></g></svg>