<?xml version="1.0" encoding="UTF-8"?><svg id="Layer_2" xmlns="http://www.w3.org/2000/svg" viewBox="0 0 680.74 373.11"><defs><style>.cls-1{fill:#fff;}</style></defs><g id="Layer_1-2"><g><g><path class="cls-1" d="M356.58,192.24c-4.38,.6-5.51,.06-5.04-2.87,.55-3.46,1.56-6.89,2.51-10.32,.71-2.55,1.64-5.06,2.48-7.59,1.97-5.93,3.99-11.84,5.88-17.78,1.97-6.21,3.76-12.45,5.73-18.65,1.44-4.52,3.16-9,4.54-13.54,1.54-5.06,2.96-10.15,4.2-15.25,.48-1.97,2.85-10.38,2.98-12.21,.09-1.22,.79-2.41,1.17-3.62,1.77-5.68,3.37-11.39,5.34-17.04,1.66-4.76,3.64-9.46,5.65-14.15,2.2-5.13,4.4-10.27,6.98-15.3,4.04-7.89,8.41-15.68,12.6-23.53,.43-.81,.61-1.69,.98-2.75-5.44-.35-10.48-.69-15.51-1-5.7-.35-11.4-.67-17.1-1.02-8.37-.52-16.75-.97-25.09-1.62-6.79-.53-13.54-1.34-20.33-1.94-3.33-.29-6.69-.35-10.03-.59-3.96-.27-7.91-.62-11.86-.93-6.45-.51-12.9-1.07-19.37-1.51-9.81-.67-19.63-1.2-29.43-1.9-3.06-.22-6.07-.76-9.36-1.19l.83-1.71-3.21-.77c1.7-.5,2.52-.87,3.39-.97,5.06-.56,10.11-1.26,15.21-1.52,7.22-.37,14.48-.45,21.72-.58C301.82,.22,311.2,0,320.57,0c10.48,0,20.99-.03,31.44,.45,12.81,.59,25.56,1.74,38.36,2.55,10.57,.67,21.15,1.18,31.73,1.78,1.86,.11,3.71,.34,5.58,.4,1.2,.04,2.41-.12,3.62-.19,.6-.03,1.27-.21,1.8-.08,8.29,1.89,16.98,1.71,25.47,2.53,8.28,.8,16.59,1.43,24.91,1.98,9.65,.64,19.33,1.08,28.99,1.68,4.96,.31,9.89,.81,14.84,1.18,5.17,.38,10.35,.65,15.52,1.03,6.55,.48,13.1,.95,19.63,1.56,9.62,.9,19.24,1.83,28.82,2.92,4.29,.49,8.5,1.39,12.73,2.14,.79,.14,1.52,.45,2.55,.76-.54,.31-.78,.58-1.05,.6-7.31,.39-14.63,.99-21.95,1.04-6.28,.04-12.56-.78-18.85-.85-6.3-.07-12.62,.3-19.35,.49,.85,1.55,2.81,1.35,3.67,2.51-4.82,.2-9.66,.45-14.51,.6-10.59,.32-21.04-1-31.56-1.51-4.68-.23-9.33-.69-14-1.02-7.18-.5-14.37-.95-21.55-1.48-7.66-.56-15.31-1.18-22.97-1.77-.87-.07-1.75-.11-2.62-.1-2.98,.02-3.23,.18-3.98,2.35-1.73,5.01-2.99,10.14-5.33,15-2.5,5.19-4.11,10.54-6.56,15.73-2.03,4.3-3.58,8.71-5.24,13.1-1.67,4.42-3.89,8.71-5.2,13.21-.93,3.2-2.87,6.23-4.08,9.4-1.75,4.56-3.01,9.22-4.9,13.74-2.79,6.7-12.29,33.22-13.13,36.86-.75,3.25-2.35,6.39-3.51,9.59-.44,1.2-.72,2.42-1.03,3.64-.11,.44-.01,.92-.19,1.34-3.05,7.25-5.98,14.52-9.28,21.71-1.27,2.77-3.36,5.36-5.21,7.98-.49,.69-1.37,1.38-2.31,1.72-2.34,.86-2.79,2.29-3.19,3.96-.74,3.05-1.4,6.16-4.21,8.7-.53,.48-1.02,1.02-1.7,1.35-2.96,1.44-5.88,.44-6.15-2.11-.14-1.33-.02-2.68-.02-4.22Z"/><path class="cls-1" d="M285.33,132.67c-1.57,.4-.7,6.7-.57,7.78,.36,2.97,.3,6.93,.39,10.08,.13,4.26-.26,8.53-.63,12.78-.2,2.29-.83,4.57-1.23,6.85-.36,2.09-.59,4.2-1.02,6.29-1.14,5.55-2.39,11.09-3.52,16.64-.69,3.37-1.25,6.75-1.86,10.12-.31,1.69-.5,3.4-.94,5.07-.21,.79-.87,1.52-1.33,2.28l-.78-.12c-.51-1.99-1.02-3.98-1.52-5.97l-.42-.03c-.84,3.84-1.67,7.67-2.54,11.66-1.86-.49-1.91-1.57-2.14-2.45-1.28-4.84-2.53-9.69-3.66-14.56-.95-4.1-2.11-8.19-2.49-12.32-.39-4.28,.05-8.59,.12-12.89,.04-2.23,.05-4.47,.08-6.7,.03-2.42,.08-4.83,.12-7.25,.04-2.39-.19-4.8,.19-7.17,.9-5.58,2.34-24.38,2.72-28.17,.49-4.91,1.12-9.82,1.63-14.73,.33-3.19,2.2-23.28,2.38-25.65,.33-4.44,1.37-19.35,1.52-22.36,.08-1.75-.34-3.57,2.69-4.5,.63-.19,.76-1.38,.94-2.13,.28-1.13,.19-2.32,.66-3.4,.61-1.36,2.53-2.11,4.43-1.77,1.76,.31,3.55,.57,4.92,1.69,.92,.74,2.72,.93,3.61,1.69,1.38,1.18,2.8,2.53,3.34,3.98,1.08,2.9,2.99,5.76,1.97,8.92,1.9,3.69,1.41,7.6,1.98,11.41,.85,5.67,1.68,11.33,2.57,17,1.37,8.78,4.64,17.27,6.78,25.92,.82,3.31,1.82,6.56,3.03,9.82,2.21,5.93,4,11.94,5.86,17.93,1.59,5.14,3.02,10.3,4.52,15.45,.32,1.11,.68,2.21,1.77,3.34,.27-.5,.7-.99,.77-1.5,.44-3.37,.62-6.76,2.06-10.04,.43-.98-.02-2.15,.24-3.19,1.47-5.84,3.06-11.67,4.54-17.51,.93-3.67,1.71-7.35,2.6-11.02,.17-.7,.39-1.42,.79-2.06,1.73-2.79,2.06-5.83,3.07-8.74,.77-2.24,1.89-4.43,2.58-6.68,.98-3.19,1.7-6.43,2.56-9.65,.16-.61,.4-1.21,.69-1.8,.78-1.57,2.31-7.38,2.77-8.65,.93-2.58,4.59-13.63,5.61-16.55,.42-1.19,1.13-2.33,1.72-3.49,.2-.4,9.3-23.51,10.11-23.79,7.21-2.45,14.51-4.75,22.81-6.86-.59,2.51-1.06,4.56-1.56,6.59-.62,2.54-1.27,5.07-1.92,7.6-.23,.87-2.13,6.09-2.97,7.75-1.64,3.23-5.68,15.04-6.68,16.99-2.23,4.34-12.55,35.13-12.94,37.83-.37,2.57-3.42,12.31-4.61,14.67-1.8,3.54-1.92,7.35-3.98,10.85-1.31,2.23-1.49,4.8-2.28,7.2-.39,1.2-1.02,2.36-1.54,3.53-.19,.42-.49,.84-.54,1.27-.3,2.65-2.04,5.06-2.56,7.64-.96,4.66-4.27,8.91-4.2,13.79,.03,2.09-1.47,4.18-2.19,6.29-.95,2.77-1.51,5.64-2.8,8.32-1.04,2.16-2.02,4.35-2.4,6.56-.49,2.88-.19,5.82,.66,8.72,1.31,4.46,2.43,8.95,3.55,13.44,.12,.47-.3,1.01-.46,1.52-.29,.05-.58,.09-.87,.13-.91-.92-1.85-1.82-2.71-2.75-3.03-3.29-6.01-6.6-9.04-9.89-1.26-1.37-5.8-4.94-6.02-6.07-.11-.6-7.48-12.45-10.13-18.01-2.88-6.05-5.51-12.16-8.51-18.18-1.14-2.29-1.82-4.58-2.47-6.95-.5-1.83-1.95-3.59-2.46-5.58-.81-3.14-2.13-6.2-3.24-9.3-.06-.16-1.36-6.63-1.6-6.97Z"/><path class="cls-1" d="M153.56,48.81c6.44-2.51,13.22-4.59,19.05-7.88,5.36-3.03,10.71-6.09,16.27-8.93,4.54-2.32,9.35-4.36,14.08-6.48,.96-.43,2.12-.62,3.23-.93,.83,1.35-.06,2.04-.84,2.69-4.79,3.96-9.65,7.86-15.36,11.17-2.11,1.22-3.86,2.77-5.77,4.17-1.18,.69-2.36,1.37-3.54,2.06l.22,.23c1.37-.56,2.75-1.13,4.12-1.69,2.01-.71,4-1.45,6.04-2.11,1.2-.39,2.48-.65,4.08-.6-.74,.68-1.43,1.39-2.24,2.02-3.62,2.82-7.17,5.7-10.97,8.4-2.46,1.75-5.23,3.3-7.98,4.83-5.05,2.81-10.23,5.49-15.27,8.31-3.46,1.93-6.69,4.07-10.15,5.98-7.39,4.08-14.89,8.07-22.32,12.12-3.13,1.71-6.19,3.48-9.32,5.19-7.28,3.97-14.59,7.92-21.89,11.88-3.14,1.71-6.27,3.43-9.53,5.21,2.04,6.17,4.05,12.25,6.15,18.61,1.33-.59,2.41-.98,3.35-1.5,6.75-3.75,13.31-7.69,20.25-11.24,8.6-4.41,16.97-9.13,26.94-11.94,2.29-.65,4.7-1.08,7.02-1.67,2.11-.54,4.14-1.28,6.3-1.7,1.3-.25,3.16-1.34,3.97,.58-.16,.27-.32,.55-.48,.82l1.28-.21c2.81-1.23,5.53-2.6,8.47-3.65,5.33-1.9,10.78-3.62,16.21-5.38,.49-.16,1.17-.02,2.18-.02-6.12,6.93-14.46,11.82-23.52,16.19,1.34,.94,2.1,1.54,.5,2.68-7.6,5.43-14.97,11.02-22.61,16.42-2.54,1.79-5.66,3.16-8.44,4.78-.94,.55-1.6,1.34-2.52,1.9-3.41,2.07-6.8,4.18-10.36,6.12-4.1,2.23-8.41,4.26-12.55,6.45-2.28,1.21-4.38,2.59-6.62,3.85-1.04,.58-1.3,1.24-.98,2.12,1.8,5.01,3.6,10.01,5.35,15.03,1.47,4.23,2.88,8.48,4.31,12.72,1.49,4.41,3.05,8.81,4.46,13.24,2.27,7.07,4.67,14.13,5.72,21.37,.28,1.95,.37,3.91,.05,6-.93-.95-1.86-1.89-3.11-3.16-1.25,3.02,1.46,5.74-.48,8.87-1.24-1.3-2.32-2.22-3.08-3.27-1.94-2.7-4.01-5.36-4.66-8.44-.07-.34-.39-.67-.69-.95-.21-.2-.58-.3-1.13-.57-.27,1.41-.51,2.69-.75,3.96-1.31,.37-2.02-.07-2.46-.79-3.18-5.14-7.12-10.04-9.11-15.56-1.9-5.25-4.35-10.39-6.29-15.64-2.86-7.75-5.48-15.54-8.27-23.52-.76,.15-1.59,.23-2.32,.47-5.08,1.68-10.14,3.4-15.22,5.09-.44,.15-1.02,.29-1.44,.2-1.01-.22-2.41-.4-2.84-.94-.7-.87,.22-1.69,1.36-2.23,1.54-.72,3.09-1.43,5.07-2.35-2.91-.82-4.4-1.94-2.91-3.94,.06-.08,.15-.19,.12-.25-2.31-3.68,2.78-4.13,4.99-5.74,1.54-1.12,3.67-1.81,5.46-2.77,.38-.2,.42-.72,.62-1.09,.29,0,.59-.02,.88-.02l-.04-.24-.79,.33c-2.68,.93-5.4,1.82-8.02,2.82-1.63,.62-2.96,.27-4.09-.5-1.24-.85-.67-1.89,.08-2.72,.94-1.04,1.98-2.08,3.23-2.93,2.73-1.84,5.58-3.59,8.48-5.29,1.33-.78,1.7-1.58,1.38-2.8-1.27-4.92-2.4-9.85-3.58-14.78-.37-1.56-.75-3.13-1.13-4.71-2.07,.07-3.2,.7-4.4,1.56-1.26,.92-2.98,1.52-4.54,2.22-7.39,3.32-14.7,6.73-22.22,9.88-3.73,1.56-7.87,2.61-11.77,3.97-1.11,.38-2.03,1.04-3.05,1.56-1.84,.93-3.63,1.92-5.56,2.73-1.05,.44-2.48,.98-3.49,.79-2.71-.52-4.26,.64-5.94,1.67-1.9,1.16-3.65,2.45-5.53,3.64-.65,.41-1.48,.66-2.46,1.09-.73-1.71,.65-2.47,1.56-3.17,4.55-3.46,9.12-6.91,13.9-10.2,6.13-4.21,12.46-8.27,18.72-12.38,.54-.35,1.24-.58,1.87-.86l-.62-.73c-1.65,.39-3.33,.73-4.93,1.19-1.25,.36-2.71,.68-3.29-.28-.38-.63,.02-1.84,.69-2.4,1.21-.99,2.83-1.75,4.38-2.49,2.59-1.24,5.4-2.26,7.84-3.62,1.94-1.08,3.31-2.69,5.22-3.8,5.33-3.1,10.72-6.16,16.28-9.04,2.7-1.4,3.71-2.93,3.02-5.25-.41-1.39-.14-2.89-.52-4.29-.66-2.39,.1-4.25,3.22-5.43-.56-2.66-1.2-5.22-1.63-7.8-.44-2.63-.35-2.64,3.27-3.77,1.97,.43,2.2,1.72,2.8,2.9,2.09,4.11,4.27,8.2,6.43,12.29,.08,.15,.33,.26,.76,.59,3.13-1.63,6.38-3.21,9.45-4.95,5.86-3.32,11.52-6.82,17.45-10.08,8.4-4.62,16.84-9.21,25.51-13.57,6.41-3.22,13.2-6.06,19.84-9.05,.39-.18,.92-.2,1.31-.28,1.88,1.04,.33,2,.1,2.97-.23,.2-.45,.4-.68,.6l-.3,.56c.32-.03,.65-.06,.97-.09,.24-.14,.48-.27,.73-.41Z"/><path class="cls-1" d="M448.59,202.44c-3.39-12.6-3.82-24.85-2.14-37.38-1.48-.09-2.55-.39-3.32-.17-6.54,1.91-13.69,2.13-20.31,3.82-1.2,.3-2.64,.17-3.97,.13-2.96-.07-4.82,1.28-5.75,3.34-1.19,2.62-1.68,5.5-4.49,7.65-.31,.24-.51,.6-.62,.93-1,3.11-1.91,6.17-4.74,8.86-1.11,1.05-1.3,2.8-2.33,4.06-1.87,2.28-3.88,4.51-6.09,6.61-2.16,2.06-4.64,3.96-7.01,5.9-.55,.45-1.23,.82-2.29,1.53-.23-.91-.53-1.46-.49-1.99,.3-4.11,.63-8.21,1.03-12.31,.08-.78,.48-1.56,.77-2.33,.19-.52,.77-1.09,.61-1.52-.74-1.89,.54-3.56,1.16-5.23,.98-2.66,2.6-5.19,3.83-7.8,1.38-2.93,2.54-5.91,3.96-8.83,1.48-3.03,3.19-6.01,4.72-9.03,1.71-3.38,3.21-6.82,5.03-10.17,1.48-2.72,3.37-5.33,4.97-8.03,1.36-2.29,2.56-4.63,3.86-6.95,1.47-2.62,2.92-5.24,4.47-7.83,2.1-3.48,4.22-6.96,6.47-10.4,2.31-3.53,4.85-6.98,7.17-10.51,1.46-2.23,2.7-4.53,4.05-6.79,.34-.57,.72-1.14,1.11-1.7,3.02-4.31,6.12-8.58,9.05-12.92,2.32-3.44,4.32-6.98,6.64-10.42,3.47-5.14,7.23-10.19,10.6-15.36,2.82-4.32,5.34-8.74,7.86-13.16,1.64-2.88,3-5.85,4.58-8.75,1.06-1.95,4.33-2.4,6.61-.99,.28,.17,.63,.28,.96,.43,1.51-.03,2.68-1.52,4.46-.46,1.77,1.06,3.3,2.13,3.6,3.91,.19,1.14,.69,2.26,1.11,3.37,.68,1.82-.14,3.52-.56,5.29-.94,3.94-1.66,7.9-2.5,11.84-.89,4.15-1.74,8.3-2.77,12.43-.69,2.76-2.23,5.47-2.39,8.23-.35,6.07-2.53,11.93-3.41,17.93-.46,3.17-1.85,6.29-2.08,9.46-.16,2.22-.67,4.38-.99,6.57-.41,2.8-1.26,5.56-1.83,8.35-.44,2.19-.7,4.4-1.11,6.6-.85,4.59-1.74,9.19-2.64,13.78-.54,2.75-.98,5.51-1.76,8.22-1.65,5.75-3.34,11.51-5.32,17.2-1.62,4.68-3.69,9.28-5.56,13.92-.07,.17-.09,.38-.25,.5-3.64,2.9-3.62,6.82-5.5,10.21-1.57,2.83-3.04,5.68-4.64,8.5-.24,.42-.9,.72-1.82,1.42Zm-27.39-44.39l.65,.52c8.11-1.5,16.22-3.01,24.78-4.6,.23-1.07,.65-2.36,.75-3.67,.24-3.07,.24-6.15,.5-9.22,.17-1.96,.63-3.91,.95-5.86,1.3-7.79,2.59-15.57,3.9-23.36,.5-2.98,1.03-5.97,1.56-9.04-.33,.17-.58,.23-.66,.34-3.56,4.95-17.91,30.1-19.47,32.99-2.51,4.66-5.39,9.22-8.12,13.81-1.6,2.69-3.23,5.38-4.85,8.07Z"/><path class="cls-1" d="M598.98,127.23c2.1-4.58,5.22-8.81,8.28-13.07,1.86-2.58,3.4-5.28,5.24-7.87,1.11-1.57,2.44-3.04,3.53-4.64,3.61-5.32,7.71-10.47,11.48-15.74,3.85-5.38,7.53-10.84,11.29-16.25,3.27-4.7,6.86-9.26,10.91-13.65,2.44-2.65,4.13-5.65,6.46-8.37,2.67-3.12,5.56-6.14,8.54-9.1,2.03-2.02,4.24-3.97,6.62-5.78,1.23-.94,2.87-1.79,4.56-2.18,3.2-.74,5.64,1.1,4.64,3.35-.44,1-1.26,1.92-1.93,2.86-.61,.86-1.27,1.71-1.88,2.54,.13,.2,.17,.44,.34,.51,3.96,1.69,3.82,1.61,1.15,4.49-1.92,2.06-3.36,4.35-5.06,6.52-1.57,2.01-3.19,4-4.79,6.01-3.95,4.95-7.94,9.89-11.84,14.86-3.39,4.32-6.86,8.62-9.98,13.05-2.66,3.78-4.64,7.82-7.37,11.57-2.14,2.94-15.17,22.56-16.81,25.11-1.24,1.94-2.58,3.84-3.83,5.77-1.26,1.95-2.47,3.93-3.71,5.89-.87,1.38-1.78,2.75-2.65,4.14-1.92,3.07-3.73,6.18-5.78,9.21-2.12,3.13-11.44,16.78-12.25,17.75-2.84,3.39-5.57,6.83-8.67,10.1-5.38,5.67-30.27,26.31-35.49,29.4-1.52,.9-2.93,1.9-4.4,2.85-.96,.62-1.93,1.24-3.31,2.12-.31-.98-.64-1.47-.6-1.94,.45-5.37,.9-10.76,4.51-15.65,1.33-1.8,2.9-3.5,4.38-5.24,1.72-2.02,3.43-4.04,5.17-6.05,3.27-3.78,6.57-7.54,9.83-11.32,3.83-4.44,7.63-8.9,11.45-13.35-4.07-3.01-6.28-6.62-7.26-10.52-.65-2.6-.59-5.31-.49-7.97,.29-7.78,.84-15.54,2.89-23.21,1.64-6.13,2.78-12.34,4.68-18.42,1.65-5.28,4.09-10.44,6.1-15.67,.82-2.14,1.29-4.36,2.14-6.49,2.97-7.44,6.33-14.8,8.88-22.31,.81-2.38,1.5-4.32,4.44-5.67,.57-.27,.68-1.12,.87-1.73,.57-1.84,1.2-3.67,1.58-5.53,.41-1.98,1.65-3.33,4.58-3.8,3.48,1,4.53,3.26,4.48,5.59-.09,4.29-.45,8.59-1.19,12.84-1.08,6.19-2.35,12.38-4.01,18.5-1.67,6.14-5.81,35.08-6.75,39.9-.58,2.97-2.16,20.37-2.4,20.62,.17,.05,2.88-2.85,3.42-4.03Z"/><path class="cls-1" d="M238.07,161.15c0,1.88,1.7,3.77,1.67,5.64-.05,2.43,.86,4.63,1.46,6.94,.76,2.89,1.16,5.84,1.65,8.77,.08,.48-.21,.99-.26,1.48-.04,.39-.17,.9,.11,1.14,1.61,1.42,1.52,3.15,2.01,4.79,.91,3.11,.25,6.44,2.5,9.35,.06,.08,.22,.16,.2,.22-.87,4.54,3.9,8.73,1.6,13.36,1.07,3.59,.45,7.23,.61,10.84,.11,2.33,.15,4.66,.12,6.99,0,.62-.38,1.24-.59,1.86l-.84,.11c-1.55-1.57-3.18-3.1-4.65-4.71-2.71-2.96-5.54-5.89-7.96-8.98-4.75-6.06-7.38-12.71-9.11-19.48-.75-2.91-2.11-5.69-2.78-8.58-1.06-4.55-1.93-9.13-2.79-13.7-.61-3.29-.98-6.6-1.67-9.88-.16-.75-.8-1.71-2.6-1.31-2.68,.59-5.43,1.03-8.13,1.58-3.57,.73-7.09,1.61-10.71,2.19-1.51,.24-2.56,.55-3.11,1.59-1.2,2.24-2.45,4.46-3.6,6.71-2.45,4.78-4.86,9.57-7.28,14.35-.38,.75-.65,1.54-1.06,2.28-.47,.85-1.06,1.66-3.14,1.3-.14-1.2-.28-2.46-.42-3.73l-.56-.1c-1.15,2.31-2.27,4.64-3.46,6.94-1.2,2.31-2.38,4.63-3.73,6.9-1.4,2.36-2.98,4.66-4.48,6.98l-.75-.1c-.08-2.12-.3-4.24-.22-6.35,.22-5.63,.57-11.26,.87-16.89,.02-.36-.05-.73,.06-1.08,1.02-3.18,2.11-6.36,3.08-9.55,.37-1.22,.37-2.5,.78-3.71,1.54-4.59,3.22-9.16,4.77-13.75,1.23-3.62,2.29-7.26,3.55-10.87,1.78-5.08,3.72-10.14,5.5-15.22,2.06-5.88,3.91-11.8,6.04-17.67,1.92-5.32,4.13-10.58,6.13-15.88,1.52-4.02,2.83-8.08,4.4-12.09,1.68-4.3,3.79-8.52,5.24-12.85,.97-2.9,2.59-5.81,1.9-8.89-.31-1.37,.67-2.09,1.96-2.59,2-.77,3.24-1.83,4.01-3.37,.44-.87,1.3-1.87,2.36-2.28,2.67-1.04,5.54,.11,5.91,2.34,.25,1.49-.02,3.03-.15,4.54-.39,4.57-.47,9.09,.72,13.66,1.14,4.37,1.24,8.88,1.94,13.32,.77,4.87,1.72,9.72,2.59,14.58,.95,5.3,1.83,10.61,2.87,15.9,.59,2.99,1.54,5.94,2.17,8.92,.9,4.29,1.6,8.6,2.48,12.9,.5,2.46,2.79,12.87,2.79,15.12Zm-26.84-40.14l-.77-.02c-1.23,3.57-2.76,7.1-3.61,10.72-1.11,4.7-3.19,9.26-3.84,14.02-.13,.94-.94,1.82-1.27,2.75-.75,2.14-1.41,4.3-2.1,6.45-.54,1.68-1.07,3.36-1.76,5.52,6.62-1.51,12.95-2.75,18.81-4.63-1.85-11.76-3.66-23.29-5.47-34.81Z"/><path class="cls-1" d="M540.77,45.79c.81-2.9,1.56-5.47,2.24-8.06,.14-.52-.11-1.08,0-1.6,.46-2.06,2.3-2.64,4.83-1.67,.93,.36,2.01,.59,3.06,.7,1.87,.19,3.05,.91,3.19,2.21,.26,2.5,.91,4.94,1.42,7.4,.38,1.82-.5,3.85-1.24,5.7-2.78,6.9-5.91,13.72-8.59,20.64-2.6,6.71-4.79,13.49-7.19,20.24-1.01,2.85-2.14,5.68-3.09,8.55-.54,1.64-.77,3.32-1.25,4.97-.47,1.63-1.08,3.24-1.76,5.26,1.09-.22,2.14-.3,3-.64,4.58-1.8,9.16-3.6,13.62-5.54,1.06-.46,1.89-1.37,2.47-2.2,2.09-2.94,4.94-3.65,9.03-2.13,.54,.2,1.14,.32,1.72,.45,4.21,.95,5.36,2.46,4.24,5.6-1.02,2.88-2.59,5.62-4.11,8.38-2.26,4.09-4.1,8.32-6.71,12.29-1.55,2.37-5.96,11.16-6.83,13.14-1.67,3.77-3.5,7.5-5.28,11.24-.43,.9-.94,1.78-1.36,2.68-1.9,4-3.56,8.05-6.69,11.72-1.9,2.23-2.97,4.82-4.62,7.17-3.3,4.71-6.75,9.36-10.14,14.04-.06,.08-.11,.17-.2,.23-8.02,5.08-10.99,12.35-15.77,18.83-.74,1.01-1.49,1.33-3.16,.92,.06-.75-.01-1.55,.21-2.31,1.62-5.62,3.05-11.27,5.02-16.83,1.59-4.5,3.79-8.89,5.82-13.3,2.35-5.1,4.64-10.22,7.26-15.24,3.21-6.13,6.75-12.16,10.13-18.24,2.03-3.65,4.01-7.32,6.06-10.97,.62-1.11,1.36-2.18,2.38-3.8-1.23,.41-1.78,.5-2.17,.73-2.49,1.45-4.7,3.28-7.48,4.32-4.49,1.68-7.66,4.45-11.67,6.49-4.15,2.12-7.99,4.59-12.26,6.56-4.91,2.27-20.06,7.9-21.81,7.36-1.56-.48-1.75-1.44-1.58-2.48,.62-3.89,.41-7.85,2.01-11.66,1.47-3.5,2.78-7.04,4.13-10.57,1.68-4.38,3.2-8.79,5.02-13.14,2.65-6.33,5.36-12.66,8.33-18.91,2.56-5.39,5.42-10.72,8.34-16.02,1.83-3.32,4.02-6.54,6.02-9.81,1.24-2.04,2.43-4.09,3.66-6.13,.77-1.28,1.54-2.55,2.38-3.81,2.37-3.55,4.58-7.16,7.24-10.59,1.1-1.43,2.91-2.79,4.86-3.61,2.2-.93,4.5,.06,7.28,1.45Zm-43.11,83.49c2.15,.73,2.86-.81,3.92-1.46,8.29-5.11,15.75-10.94,25.83-14.9-.58-1.18-.68-2.75-1.79-3.35-2.11-1.12-2.79-2.68-3.73-4.19-1.59-2.56-1.36-5.22-.74-7.92,.99-4.25,1.72-8.53,2.82-12.76,.45-1.72,1.64-3.33,2.36-5.02,.47-1.09,.72-2.24,1.07-3.36-.94,.31-1.41,.73-1.67,1.2-1.1,2.04-2.08,4.12-3.2,6.15-.95,1.72-1.99,3.41-3.08,5.09-1.17,1.8-7.04,13.54-8.04,16.31-1.43,3.96-4.88,7.25-6.21,11.18-.06,.17-.26,.3-.37,.46-.89,1.26-1.93,2.48-2.65,3.79-1.58,2.91-3,5.87-4.47,8.81l.1,.16-.16-.2Z"/></g><g><path class="cls-1" d="M273.82,267.75l14.99-.43c3.61-.58,6.1-3.84,5.57-7.27s-3.88-5.75-7.49-5.17l-14.58,2.86c-2.65,.44-4.46,3.03-4.04,5.8,.42,2.77,2.9,4.66,5.55,4.22Z"/><path class="cls-1" d="M647.68,296.28c-.76-4.99-3.03-10.32-6.72-14.3,2.85-6.81,2.08-13.45,1.72-16.57-.07-.64-.18-1.52-.18-1.82,.01-6.05-2.05-11.68-5.82-16.01,2.25-3.87,3.57-8.25,3.48-12.85-.19-10.03-7.24-22.1-26.46-23.12-3.76-.2-7.38-.3-11.05-.3-8.86,0-17.91,.56-27.67,1.73-14.55,1.73-27.06,8.1-36.64,17.93-5.92-11.91-17.15-18.44-32.65-18.44-6.91,0-14.02,1.22-20.9,2.4-2.18,.37-4.39,.75-6.6,1.09-23.69,3.63-39.35,12.71-49.25,21.2-8.86-18.78-28.84-31.91-52.01-31.91-18.57,0-35.09,8.43-45.48,21.43-9.02-7.54-22.01-11.86-37.38-11.86-4.74,0-9.61,.42-14.48,1.25-13.41,2.29-28.14,6.14-38.03,15.24-10.22-14.4-27.62-23.9-47.34-23.9-14.78,0-28.27,5.34-38.4,14.08-6.3-5.89-14.99-9.02-25.73-9.02-6.91,0-14.02,1.22-20.9,2.4-2.18,.37-4.39,.75-6.6,1.09-28.76,4.4-45.7,16.85-54.84,26.51-11.23,11.87-17.67,26.73-17.67,40.77,0,1.07-.02,2.29-.05,3.63-.26,14.66-.74,41.95,17.51,60.53,10.68,10.87,25.46,16.38,43.93,16.38h.91c12.85-.13,21.75-4.59,28.1-10.35,6.55,7.58,15.36,12.16,25.18,12.16,4.65,0,9.49-1.05,14.12-3,5.8,6.46,14.49,10.47,24.08,10.47,7.55,0,14.57-2.51,20.05-6.76,4.63,3.8,10.45,6.03,16.74,6.03,11.16,0,20.76-7.11,24.93-17.25,6.69,5.55,14.9,8.75,23.93,8.75,9.79,0,19.36-4.93,27.32-11.48,6.63,8.26,15.83,13.3,26.13,13.3,6.4,0,13.15-1.99,19.24-5.56,5.8,6.66,14.62,10.82,24.38,10.82,7.55,0,14.57-2.51,20.05-6.76,4.63,3.8,10.45,6.03,16.74,6.03,11.43,0,21.23-7.47,25.22-18,10.07,7.7,22.97,11.61,38.49,11.61h.91c12.85-.13,21.75-4.59,28.1-10.35,6.55,7.58,15.36,12.16,25.18,12.16,6.35,0,13.05-1.96,19.11-5.49,5.53,3.15,11.92,4.79,18.87,4.79h0c7.47,0,15.52-1.82,24.6-5.56,45.83-18.89,67.31-40.12,63.82-63.1Zm-488.5,46.19c-4.13,3.37-9.34,5.4-13.52,5.4-10.13,0-19.07-12.23-19.09-28.29-2.82-.36-5.99,1.04-7.44,4.35-5.21,10.33-9.77,21.95-26.92,22.12-48.95,.48-44.35-46.41-44.35-62.76s15.01-43.21,57.42-49.71c22.17-3.39,43.54-10.51,44.43,18.89,1.06,35.26-14.29,31.6-32.93,34.99-9.93,1.8-21.2,2.38-30.11-.58,4.82,6.9,16.3,8.63,31.13,9.83,10.08,.82,19.49-.68,26.61-3.55,2.1,4.84,7.06,15.91,8.51,19.84,2.05,5.59,6.84,24.52,6.84,24.52,.43,2.05,.14,3.66-.58,4.95Zm70.83,1.4c0,5.93-4.19,10.74-9.36,10.74-4.6,0-8.41-3.8-9.2-8.81l-2.59-11.99c-.4-1.63-1.86-2.79-3.54-2.79h-2.56c-1.8,0-3.33,1.31-3.6,3.09l-1.78,11.6h-.06c-1.1,5.46-6.69,9.62-13.44,9.62s-12.44-4.24-13.47-9.78c0,0-15.3-74.05-15.3-84.48,0-19.8,17.52-35.85,39.13-35.85s39.13,16.05,39.13,35.85c0,.41-3.34,82.78-3.34,82.78Zm106.46-1.34c-4.13,3.37-9.34,5.4-13.52,5.4-10.13,0-19.07-12.23-19.09-28.29-2.82-.36-4.01,1.14-4.45,1.94-3.83,9.24-19.09,24.53-29.91,24.53-14.39,0-23.12-14.79-23.46-30.55,0,0,1.18-50.44,1.78-58.43l.06-.02c.83-10.62,7.19-18.78,34.68-23.47,22.11-3.77,42.01,3.27,44.43,18.89,2.37,15.32-14.29,31.6-32.93,34.99-9.93,1.8-21.2,2.38-30.11-.58,4.82,6.9,16.3,8.63,31.13,9.83,10.08,.82,19.49-.68,26.61-3.55,2.1,4.84,7.06,15.91,8.51,19.84,2.05,5.59,6.84,24.52,6.84,24.52,.43,2.05,.14,3.66-.58,4.95Zm76.25-.82c0,5.93-4.19,10.74-9.36,10.74-4.6,0-8.41-3.8-9.2-8.81l-2.59-11.99c-.4-1.63-1.86-2.79-3.54-2.79h-2.56c-1.8,0-3.33,1.31-3.6,3.09l-1.78,11.6h-.06c-1.1,5.46-6.69,9.62-13.44,9.62s-12.44-4.24-13.47-9.78c0,0-15.3-74.05-15.3-84.48,0-19.8,17.52-35.85,39.13-35.85s39.13,16.05,39.13,35.85c0,.41-3.34,82.78-3.34,82.78Zm122.05,.76c-4.13,3.37-9.34,5.4-13.52,5.4-10.13,0-19.07-12.23-19.09-28.29-2.82-.36-5.99,1.04-7.44,4.35-5.21,10.33-9.77,21.95-26.92,22.12-48.95,.48-44.35-46.41-44.35-62.76s15.01-43.21,57.42-49.71c22.17-3.39,43.54-10.51,44.43,18.89,1.06,35.26-14.29,31.6-32.93,34.99-9.93,1.8-21.2,2.38-30.11-.58,4.82,6.9,16.3,8.63,31.13,9.83,10.08,.82,19.49-.68,26.61-3.55,2.1,4.84,7.06,15.91,8.51,19.84,2.05,5.59,6.84,24.52,6.84,24.52,.43,2.05,.14,3.66-.58,4.95Zm42.3,.48c-43.5,17.92-41.51-25.13-41.51-56.13s16.2-53.12,41.51-56.13c15.68-1.87,27.16-1.78,35.67-1.33,17.76,.95,7.06,15.31-1.17,16.07-9.89,.91-27.34,4.43-31.52,5.29-4.05,.84-13.75,3.43-14.03,6.16-.26,2.61,2.68,2.83,6.34,2.49,0,0,42.65-2.08,45.49-2.16,4.09-.12,6.87,2.25,6.86,6.35-.01,6.32,3.57,12.59-6.84,17.09-2.09,.9-15.69,4.39-23.52,6.17-4.7,1.07-27.86,4.3-27.47,8.42,.29,3.03,5.55,3.15,9.82,2.75,0,0,41.15-5.29,50.52-4.45,1.52,.14,18.72,21.03-50.16,49.41Z"/><path class="cls-1" d="M384.46,258.92c-3.65,.16-6.5,3.53-6.36,7.53l2.77,36.93c.11,2.94,2.59,5.23,5.53,5.11,2.94-.12,5.23-2.59,5.11-5.53l-.19-37.08c-.14-4-3.22-7.12-6.87-6.96Z"/><path class="cls-1" d="M201.75,261.08c-3.65,.16-6.5,3.53-6.35,7.53l2.77,36.93c.11,2.94,2.59,5.23,5.53,5.11s5.23-2.59,5.11-5.53l-.19-37.08c-.14-4-3.22-7.12-6.87-6.96Z"/></g></g></g></svg>