<?xml version="1.0" encoding="UTF-8"?><svg id="Layer_2" xmlns="http://www.w3.org/2000/svg" viewBox="0 0 602.4 134.2"><defs><style>.cls-1{fill:#fff;}</style></defs><g id="Layer_1-2"><g><g><path class="cls-1" d="M147.93,110.89c-1.82,.35-2.28,.03-2.09-1.65,.23-2,.65-3.98,1.04-5.95,.29-1.47,.68-2.92,1.03-4.38,.82-3.42,1.66-6.83,2.44-10.26,.82-3.58,1.56-7.18,2.38-10.76,.6-2.61,1.31-5.19,1.88-7.81,.64-2.92,1.23-5.85,1.74-8.8,.2-1.14,1.18-5.99,1.24-7.04,.04-.7,.33-1.39,.49-2.09,.74-3.28,1.4-6.57,2.22-9.83,.69-2.74,1.51-5.46,2.35-8.16,.91-2.96,1.82-5.92,2.89-8.83,1.68-4.55,3.49-9.05,5.23-13.57,.18-.47,.25-.97,.41-1.59-2.26-.2-4.35-.4-6.44-.57-2.36-.2-4.73-.39-7.09-.59-3.47-.3-6.95-.56-10.41-.93-2.82-.3-5.62-.77-8.43-1.12-1.38-.17-2.78-.2-4.16-.34-1.64-.16-3.28-.36-4.92-.54-2.68-.29-5.35-.62-8.03-.87-4.07-.38-8.14-.69-12.21-1.09-1.27-.12-2.52-.44-3.88-.69l.34-.98-1.33-.44c.71-.29,1.04-.5,1.41-.56,2.1-.32,4.2-.73,6.31-.88,3-.22,6.01-.26,9.01-.34C125.21,.13,129.1,0,132.99,0c4.35,0,8.71-.02,13.04,.26,5.31,.34,10.61,1,15.91,1.47,4.38,.39,8.78,.68,13.16,1.03,.77,.06,1.54,.2,2.31,.23,.5,.02,1-.07,1.5-.11,.25-.02,.53-.12,.75-.05,3.44,1.09,7.04,.99,10.57,1.46,3.43,.46,6.88,.82,10.33,1.14,4,.37,8.02,.62,12.03,.97,2.06,.18,4.1,.47,6.16,.68,2.14,.22,4.29,.38,6.44,.6,2.72,.28,5.44,.55,8.14,.9,3.99,.52,7.98,1.05,11.96,1.68,1.78,.28,3.53,.8,5.28,1.24,.33,.08,.63,.26,1.06,.44-.22,.18-.32,.34-.44,.34-3.03,.22-6.07,.57-9.11,.6-2.61,.02-5.21-.45-7.82-.49-2.62-.04-5.23,.17-8.03,.28,.35,.89,1.17,.78,1.52,1.45-2,.12-4.01,.26-6.02,.34-4.39,.18-8.73-.57-13.09-.87-1.94-.13-3.87-.4-5.81-.59-2.98-.29-5.96-.55-8.94-.85-3.18-.32-6.35-.68-9.53-1.02-.36-.04-.72-.06-1.09-.06-1.24,0-1.34,.1-1.65,1.36-.72,2.89-1.24,5.85-2.21,8.65-1.04,2.99-1.71,6.08-2.72,9.07-.84,2.48-1.49,5.03-2.17,7.55-.69,2.55-1.61,5.02-2.16,7.62-.39,1.84-1.19,3.6-1.69,5.42-.72,2.63-1.25,5.32-2.03,7.93-1.16,3.87-5.1,19.16-5.45,21.26-.31,1.87-.98,3.68-1.46,5.53-.18,.69-.3,1.4-.43,2.1-.05,.25,0,.53-.08,.77-1.27,4.18-2.48,8.38-3.85,12.52-.53,1.6-1.39,3.09-2.16,4.6-.2,.4-.57,.79-.96,.99-.97,.49-1.16,1.32-1.32,2.29-.31,1.76-.58,3.55-1.75,5.02-.22,.27-.42,.59-.71,.78-1.23,.83-2.44,.25-2.55-1.22-.06-.77-.01-1.54-.01-2.44Z"/><path class="cls-1" d="M118.37,76.53c-.65,.23-.29,3.87-.24,4.49,.15,1.71,.12,4,.16,5.81,.05,2.45-.11,4.92-.26,7.37-.08,1.32-.35,2.63-.51,3.95-.15,1.21-.25,2.42-.42,3.63-.47,3.2-.99,6.39-1.46,9.6-.29,1.94-.52,3.89-.77,5.84-.13,.98-.21,1.96-.39,2.93-.09,.46-.36,.88-.55,1.31l-.32-.07-.63-3.45-.18-.02c-.35,2.21-.69,4.43-1.05,6.73-.77-.28-.79-.91-.89-1.41-.53-2.79-1.05-5.59-1.52-8.4-.4-2.36-.88-4.73-1.03-7.11-.16-2.47,.02-4.96,.05-7.44,.01-1.29,.02-2.58,.03-3.86,.01-1.39,.03-2.79,.05-4.18,.02-1.38-.08-2.77,.08-4.13,.37-3.22,.97-14.06,1.13-16.25,.2-2.83,.46-5.66,.68-8.5,.14-1.84,.91-13.43,.99-14.79,.14-2.56,.57-11.16,.63-12.9,.03-1.01-.14-2.06,1.12-2.6,.26-.11,.31-.8,.39-1.23,.12-.65,.08-1.34,.27-1.96,.25-.79,1.05-1.22,1.84-1.02,.73,.18,1.47,.33,2.04,.97,.38,.43,1.13,.54,1.5,.97,.57,.68,1.16,1.46,1.38,2.3,.45,1.67,1.24,3.32,.82,5.15,.79,2.13,.59,4.39,.82,6.58,.35,3.27,.7,6.54,1.07,9.8,.57,5.06,1.92,9.96,2.81,14.95,.34,1.91,.75,3.79,1.26,5.66,.92,3.42,1.66,6.89,2.43,10.34,.66,2.96,1.25,5.94,1.88,8.91,.13,.64,.28,1.28,.74,1.93,.11-.29,.29-.57,.32-.86,.18-1.94,.26-3.9,.86-5.79,.18-.57,0-1.24,.1-1.84,.61-3.37,1.27-6.73,1.88-10.1,.38-2.11,.71-4.24,1.08-6.36,.07-.4,.16-.82,.33-1.19,.72-1.61,.86-3.36,1.27-5.04,.32-1.29,.78-2.55,1.07-3.85,.41-1.84,.71-3.71,1.06-5.56,.07-.35,.17-.7,.29-1.04,.32-.9,.96-4.26,1.15-4.99,.38-1.49,1.9-7.86,2.33-9.55,.17-.69,.47-1.34,.71-2.01,.08-.23,3.86-13.56,4.2-13.72,2.99-1.41,6.02-2.74,9.46-3.95-.25,1.45-.44,2.63-.65,3.8-.26,1.46-.53,2.92-.8,4.38-.09,.5-.88,3.51-1.23,4.47-.68,1.86-2.36,8.68-2.77,9.8-.92,2.5-5.21,20.26-5.37,21.82-.15,1.48-1.42,7.1-1.91,8.46-.75,2.04-.79,4.24-1.65,6.26-.54,1.29-.62,2.77-.94,4.15-.16,.69-.42,1.36-.64,2.04-.08,.24-.2,.48-.22,.73-.12,1.53-.84,2.92-1.06,4.41-.4,2.69-1.77,5.14-1.74,7.95,.01,1.21-.61,2.41-.91,3.63-.39,1.6-.62,3.25-1.16,4.8-.43,1.25-.84,2.51-1,3.78-.2,1.66-.08,3.36,.28,5.03,.54,2.57,1.01,5.16,1.47,7.75,.05,.27-.12,.58-.19,.88l-.36,.08c-.38-.53-.77-1.05-1.12-1.59-1.26-1.9-2.49-3.81-3.75-5.71-.52-.79-2.41-2.85-2.5-3.5-.05-.35-3.1-7.18-4.2-10.39-1.2-3.49-2.29-7.01-3.53-10.48-.47-1.32-.75-2.64-1.02-4.01-.21-1.06-.81-2.07-1.02-3.22-.33-1.81-.88-3.58-1.34-5.36-.02-.09-.56-3.82-.66-4.02Z"/><path class="cls-1" d="M63.7,28.15c2.67-1.45,5.48-2.65,7.9-4.55,2.22-1.75,4.44-3.51,6.75-5.15,1.88-1.34,3.88-2.52,5.84-3.74,.4-.25,.88-.36,1.34-.54,.34,.78-.02,1.18-.35,1.55-1.99,2.28-4,4.53-6.37,6.45-.87,.71-1.6,1.6-2.39,2.41-.49,.4-.98,.79-1.47,1.19l.09,.13c.57-.32,1.14-.65,1.71-.97,.83-.41,1.66-.84,2.51-1.22,.5-.22,1.03-.38,1.69-.34-.31,.39-.59,.8-.93,1.17-1.5,1.63-2.98,3.29-4.55,4.85-1.02,1.01-2.17,1.9-3.31,2.78-2.09,1.62-4.24,3.17-6.33,4.79-1.43,1.11-2.77,2.35-4.21,3.45-3.07,2.36-6.18,4.66-9.26,6.99-1.3,.98-2.57,2.01-3.87,2.99-3.02,2.29-6.05,4.57-9.08,6.85-1.3,.98-2.6,1.98-3.95,3.01,.85,3.56,1.68,7.06,2.55,10.73,.55-.34,1-.57,1.39-.86,2.8-2.16,5.52-4.43,8.4-6.49,3.57-2.54,7.04-5.27,11.18-6.89,.95-.37,1.95-.62,2.91-.96,.88-.31,1.72-.74,2.61-.98,.54-.14,1.31-.77,1.65,.33-.07,.16-.13,.31-.2,.47l.53-.12c1.17-.71,2.29-1.5,3.51-2.1,2.21-1.1,4.47-2.09,6.72-3.1,.2-.09,.49-.01,.9-.01-2.54,4-6,6.82-9.76,9.34,.56,.54,.87,.89,.21,1.55-3.15,3.13-6.21,6.36-9.38,9.47-1.05,1.03-2.35,1.82-3.5,2.76-.39,.31-.66,.77-1.05,1.1-1.42,1.2-2.82,2.41-4.3,3.53-1.7,1.29-3.49,2.46-5.21,3.72-.95,.7-1.82,1.5-2.75,2.22-.43,.34-.54,.71-.41,1.22,.75,2.89,1.5,5.78,2.22,8.67,.61,2.44,1.19,4.89,1.79,7.34,.62,2.54,1.26,5.08,1.85,7.64,.94,4.08,1.94,8.15,2.37,12.33,.12,1.12,.15,2.26,.02,3.46l-1.29-1.82c-.52,1.74,.61,3.31-.2,5.12-.51-.75-.96-1.28-1.28-1.89-.81-1.55-1.67-3.09-1.93-4.87-.03-.19-.16-.38-.29-.55-.09-.11-.24-.17-.47-.33l-.31,2.28c-.54,.21-.84-.04-1.02-.46-1.32-2.97-2.95-5.79-3.78-8.98-.79-3.03-1.81-6-2.61-9.02-1.19-4.47-2.27-8.96-3.43-13.56-.32,.09-.66,.13-.96,.27-2.11,.97-4.21,1.96-6.31,2.93-.18,.08-.42,.17-.6,.12-.42-.13-1-.23-1.18-.54-.29-.5,.09-.98,.56-1.28,.64-.42,1.28-.83,2.1-1.36-1.21-.48-1.82-1.12-1.21-2.27,.02-.05,.06-.11,.05-.14-.96-2.12,1.15-2.38,2.07-3.31,.64-.65,1.52-1.05,2.27-1.6,.16-.12,.18-.41,.26-.63,.12,0,.24,0,.36-.01l-.02-.14-.33,.19c-1.11,.54-2.24,1.05-3.33,1.63-.68,.36-1.23,.15-1.7-.29-.52-.49-.28-1.09,.03-1.57,.39-.6,.82-1.2,1.34-1.69,1.13-1.06,2.31-2.07,3.52-3.05,.55-.45,.7-.91,.57-1.62-.53-2.84-1-5.68-1.49-8.53-.16-.9-.31-1.8-.47-2.72-.86,.04-1.33,.4-1.82,.9-.52,.53-1.24,.88-1.88,1.28-3.06,1.91-6.1,3.88-9.22,5.7-1.55,.9-3.26,1.51-4.88,2.29-.46,.22-.84,.6-1.26,.9-.76,.53-1.51,1.1-2.31,1.58-.43,.26-1.03,.57-1.45,.46-1.12-.3-1.77,.37-2.46,.96-.79,.67-1.52,1.41-2.3,2.1-.27,.24-.61,.38-1.02,.63-.3-.98,.27-1.43,.65-1.83,1.89-2,3.78-3.99,5.77-5.88,2.54-2.43,5.17-4.77,7.77-7.14,.22-.2,.52-.33,.78-.5l-.26-.42c-.68,.23-1.38,.42-2.05,.69-.52,.21-1.12,.39-1.37-.16-.16-.36,0-1.06,.29-1.38,.5-.57,1.17-1.01,1.82-1.44,1.07-.71,2.24-1.3,3.25-2.09,.8-.62,1.37-1.55,2.17-2.19,2.21-1.79,4.45-3.55,6.75-5.21,1.12-.81,1.54-1.69,1.25-3.03-.17-.8-.06-1.67-.22-2.47-.28-1.38,.04-2.45,1.34-3.13-.23-1.53-.5-3.01-.67-4.5-.18-1.51-.14-1.52,1.36-2.17,.82,.25,.91,.99,1.16,1.67,.87,2.37,1.77,4.73,2.67,7.09,.03,.09,.14,.15,.31,.34,1.3-.94,2.65-1.85,3.92-2.85,2.43-1.91,4.78-3.94,7.24-5.81,3.49-2.66,6.99-5.31,10.58-7.83,2.66-1.86,5.48-3.5,8.23-5.22,.16-.1,.38-.12,.54-.16,.78,.6,.14,1.16,.04,1.71-.09,.12-.19,.23-.28,.35l-.13,.32c.13-.02,.27-.03,.4-.05,.1-.08,.2-.16,.3-.24Z"/><path class="cls-1" d="M186.1,116.77c-1.41-7.27-1.59-14.33-.89-21.56-.61-.05-1.06-.23-1.38-.1-2.71,1.1-5.68,1.23-8.43,2.2-.5,.18-1.1,.1-1.65,.08-1.23-.04-2,.74-2.39,1.93-.49,1.51-.7,3.17-1.86,4.41-.13,.14-.21,.34-.26,.53-.42,1.79-.79,3.56-1.97,5.11-.46,.61-.54,1.62-.97,2.34-.77,1.31-1.61,2.6-2.53,3.81-.9,1.19-1.92,2.28-2.91,3.41-.23,.26-.51,.48-.95,.88-.1-.52-.22-.84-.2-1.15,.12-2.37,.26-4.74,.43-7.1,.03-.45,.2-.9,.32-1.34,.08-.3,.32-.63,.25-.88-.31-1.09,.23-2.05,.48-3.02,.41-1.53,1.08-2.99,1.59-4.5,.57-1.69,1.06-3.41,1.64-5.09,.61-1.75,1.32-3.46,1.96-5.21,.71-1.95,1.33-3.93,2.09-5.86,.62-1.57,1.4-3.08,2.06-4.63,.57-1.32,1.06-2.67,1.6-4.01,.61-1.51,1.21-3.02,1.86-4.52,.87-2.01,1.75-4.02,2.68-6,.96-2.04,2.01-4.03,2.97-6.06,.61-1.28,1.12-2.61,1.68-3.92,.14-.33,.3-.66,.46-.98,1.25-2.48,2.54-4.95,3.75-7.45,.96-1.98,1.79-4.03,2.75-6.01,1.44-2.97,3-5.88,4.4-8.86,1.17-2.49,2.22-5.04,3.26-7.59,.68-1.66,1.25-3.37,1.9-5.05,.44-1.13,1.8-1.39,2.74-.57,.12,.1,.26,.16,.4,.25,.62-.02,1.11-.87,1.85-.26,.73,.61,1.37,1.23,1.49,2.26,.08,.66,.29,1.3,.46,1.94,.28,1.05-.06,2.03-.23,3.05-.39,2.27-.69,4.56-1.04,6.83-.37,2.39-.72,4.79-1.15,7.17-.29,1.59-.92,3.15-.99,4.75-.15,3.5-1.05,6.88-1.41,10.34-.19,1.83-.77,3.63-.86,5.46-.07,1.28-.28,2.53-.41,3.79-.17,1.61-.52,3.21-.76,4.81-.18,1.26-.29,2.54-.46,3.81-.35,2.65-.72,5.3-1.1,7.95-.22,1.58-.41,3.18-.73,4.74-.69,3.32-1.39,6.64-2.21,9.92-.67,2.7-1.53,5.35-2.31,8.03-.03,.1-.04,.22-.1,.29-1.51,1.68-1.5,3.94-2.28,5.89-.65,1.63-1.26,3.28-1.92,4.9-.1,.24-.38,.42-.76,.82Zm-11.36-25.61l.27,.3c3.36-.87,6.73-1.74,10.28-2.65,.09-.62,.27-1.36,.31-2.11,.1-1.77,.1-3.55,.21-5.32,.07-1.13,.26-2.25,.4-3.38,.54-4.49,1.08-8.98,1.62-13.47,.21-1.72,.43-3.44,.65-5.21-.14,.1-.24,.13-.27,.2-1.48,2.86-7.43,17.36-8.08,19.03-1.04,2.69-2.23,5.32-3.37,7.97-.66,1.55-1.34,3.1-2.01,4.65Z"/><path class="cls-1" d="M248.48,73.39c.87-2.64,2.17-5.08,3.44-7.54,.77-1.49,1.41-3.05,2.17-4.54,.46-.9,1.01-1.75,1.46-2.68,1.5-3.07,3.2-6.04,4.76-9.08,1.6-3.11,3.12-6.25,4.69-9.37,1.36-2.71,2.85-5.34,4.52-7.87,1.01-1.53,1.71-3.26,2.68-4.83,1.11-1.8,2.31-3.54,3.54-5.25,.84-1.17,1.76-2.29,2.74-3.33,.51-.54,1.19-1.03,1.89-1.26,1.33-.43,2.34,.63,1.92,1.93-.18,.58-.52,1.11-.8,1.65-.26,.5-.53,.99-.78,1.47,.05,.12,.07,.25,.14,.3,1.64,.97,1.59,.93,.48,2.59-.79,1.19-1.4,2.51-2.1,3.76-.65,1.16-1.32,2.31-1.99,3.46-1.64,2.86-3.29,5.71-4.91,8.57-1.41,2.49-2.84,4.97-4.14,7.53-1.1,2.18-1.92,4.51-3.06,6.67-.89,1.7-6.29,13.01-6.98,14.48-.52,1.12-1.07,2.22-1.59,3.33-.52,1.13-1.02,2.26-1.54,3.4-.36,.8-.74,1.59-1.1,2.39-.8,1.77-1.55,3.57-2.4,5.31-.88,1.81-4.75,9.68-5.08,10.24-1.18,1.95-2.31,3.94-3.6,5.82-2.23,3.27-12.56,15.18-14.72,16.96-.63,.52-1.22,1.1-1.82,1.65-.4,.36-.8,.71-1.37,1.22-.13-.56-.26-.85-.25-1.12,.19-3.1,.37-6.21,1.87-9.02,.55-1.04,1.2-2.02,1.82-3.02,.71-1.17,1.42-2.33,2.14-3.49,1.36-2.18,2.72-4.35,4.08-6.53,1.59-2.56,3.17-5.13,4.75-7.7-1.69-1.73-2.61-3.82-3.01-6.07-.27-1.5-.25-3.07-.2-4.6,.12-4.49,.35-8.96,1.2-13.39,.68-3.54,1.15-7.12,1.94-10.63,.68-3.05,1.7-6.02,2.53-9.04,.34-1.24,.53-2.51,.89-3.75,1.23-4.29,2.63-8.54,3.69-12.87,.34-1.37,.62-2.49,1.84-3.27,.24-.15,.28-.65,.36-1,.24-1.06,.5-2.12,.66-3.19,.17-1.14,.68-1.92,1.9-2.19,1.44,.57,1.88,1.88,1.86,3.23-.04,2.47-.19,4.95-.5,7.41-.45,3.57-.97,7.14-1.66,10.67-.69,3.54-2.41,20.23-2.8,23.02-.24,1.71-.9,11.75-1,11.89,.07,.03,1.2-1.65,1.42-2.32Z"/><path class="cls-1" d="M98.76,92.95c0,1.08,.71,2.17,.69,3.25-.02,1.4,.36,2.67,.61,4,.32,1.67,.48,3.37,.69,5.06,.03,.28-.09,.57-.11,.86-.01,.22-.07,.52,.04,.66,.67,.82,.63,1.81,.83,2.77,.38,1.79,.1,3.71,1.04,5.4,.03,.05,.09,.09,.08,.13-.36,2.62,1.62,5.04,.66,7.7,.45,2.07,.19,4.17,.25,6.25,.04,1.34,.06,2.69,.05,4.03,0,.36-.16,.72-.24,1.07l-.35,.06c-.64-.9-1.32-1.79-1.93-2.72-1.13-1.71-2.3-3.4-3.3-5.18-1.97-3.49-3.06-7.33-3.78-11.23-.31-1.68-.87-3.28-1.15-4.95-.44-2.63-.8-5.27-1.16-7.9-.25-1.9-.41-3.81-.69-5.7-.07-.43-.33-.98-1.08-.75-1.11,.34-2.25,.59-3.37,.91-1.48,.42-2.94,.93-4.44,1.26-.63,.14-1.06,.32-1.29,.92-.5,1.29-1.02,2.57-1.49,3.87-1.02,2.76-2.02,5.52-3.02,8.28-.16,.43-.27,.89-.44,1.31-.2,.49-.44,.96-1.3,.75l-.18-2.15-.23-.05c-.48,1.34-.94,2.68-1.44,4-.5,1.33-.99,2.67-1.55,3.98-.58,1.36-1.24,2.69-1.86,4.03l-.31-.06c-.03-1.22-.13-2.44-.09-3.66,.09-3.25,.24-6.5,.36-9.74,0-.21-.02-.42,.02-.62,.42-1.84,.87-3.67,1.28-5.51,.15-.7,.15-1.44,.32-2.14,.64-2.65,1.33-5.28,1.98-7.93,.51-2.09,.95-4.19,1.47-6.27,.74-2.93,1.54-5.85,2.28-8.78,.85-3.39,1.62-6.81,2.51-10.19,.8-3.07,1.71-6.1,2.54-9.16,.63-2.32,1.17-4.66,1.82-6.97,.7-2.48,1.57-4.91,2.17-7.41,.4-1.67,1.07-3.35,.79-5.13-.13-.79,.28-1.21,.81-1.49,.83-.44,1.34-1.06,1.66-1.94,.18-.5,.54-1.08,.98-1.32,1.11-.6,2.3,.06,2.45,1.35,.1,.86,0,1.75-.06,2.62-.16,2.64-.19,5.24,.3,7.88,.47,2.52,.51,5.12,.8,7.68,.32,2.81,.71,5.61,1.07,8.41,.39,3.06,.76,6.12,1.19,9.17,.24,1.72,.64,3.42,.9,5.15,.37,2.48,.67,4.96,1.03,7.44,.21,1.42,1.16,7.42,1.16,8.72Zm-11.13-23.15h-.32c-.51,2.05-1.14,4.09-1.5,6.17-.46,2.71-1.32,5.34-1.59,8.09-.05,.54-.39,1.05-.53,1.59-.31,1.23-.58,2.48-.87,3.72-.22,.97-.45,1.94-.73,3.18,2.75-.87,5.37-1.59,7.8-2.67-.77-6.78-1.52-13.43-2.27-20.08Z"/><path class="cls-1" d="M224.33,26.41c.34-1.67,.65-3.16,.93-4.65,.06-.3-.05-.62,0-.93,.19-1.19,.96-1.52,2-.96,.39,.21,.83,.34,1.27,.4,.77,.11,1.27,.53,1.32,1.28,.11,1.44,.38,2.85,.59,4.27,.16,1.05-.21,2.22-.52,3.29-1.15,3.98-2.45,7.92-3.56,11.91-1.08,3.87-1.99,7.78-2.98,11.67-.42,1.65-.89,3.28-1.28,4.93-.23,.94-.32,1.92-.52,2.87-.2,.94-.45,1.87-.73,3.03,.45-.13,.89-.17,1.24-.37,1.9-1.04,3.8-2.08,5.65-3.2,.44-.27,.78-.79,1.03-1.27,.86-1.7,2.05-2.1,3.75-1.23,.22,.12,.47,.18,.71,.26,1.74,.55,2.22,1.42,1.76,3.23-.42,1.66-1.07,3.24-1.7,4.83-.94,2.36-1.7,4.8-2.78,7.09-.64,1.37-2.47,6.44-2.84,7.58-.69,2.17-1.45,4.33-2.19,6.49-.18,.52-.39,1.03-.57,1.54-.79,2.31-1.48,4.64-2.78,6.76-.79,1.29-1.23,2.78-1.92,4.14-1.37,2.72-2.8,5.4-4.21,8.1-.02,.05-.05,.1-.08,.13-3.33,2.93-4.56,7.12-6.54,10.86-.31,.58-.62,.77-1.31,.53,.02-.43,0-.89,.09-1.33,.67-3.24,1.27-6.5,2.08-9.71,.66-2.59,1.57-5.13,2.42-7.67,.97-2.94,1.92-5.89,3.01-8.79,1.33-3.53,2.8-7.02,4.2-10.52,.84-2.11,1.67-4.22,2.51-6.32,.26-.64,.56-1.26,.99-2.19-.51,.24-.74,.29-.9,.42-1.03,.84-1.95,1.89-3.1,2.49-1.86,.97-3.18,2.57-4.84,3.75-1.72,1.22-3.31,2.65-5.09,3.79-2.04,1.31-8.32,4.56-9.05,4.24-.65-.28-.72-.83-.66-1.43,.26-2.24,.17-4.53,.83-6.73,.61-2.02,1.15-4.06,1.71-6.1,.7-2.53,1.33-5.07,2.08-7.58,1.1-3.65,2.22-7.3,3.46-10.91,1.06-3.11,2.25-6.18,3.46-9.24,.76-1.92,1.67-3.77,2.5-5.66,.52-1.17,1.01-2.36,1.52-3.53,.32-.74,.64-1.47,.99-2.2,.98-2.05,1.9-4.13,3-6.11,.46-.82,1.21-1.61,2.01-2.08,.91-.54,1.87,.03,3.02,.83Zm-17.89,48.16c.89,.42,1.19-.47,1.63-.84,3.44-2.95,6.54-6.31,10.72-8.6-.24-.68-.28-1.59-.74-1.93-.87-.65-1.16-1.54-1.55-2.42-.66-1.48-.57-3.01-.31-4.57,.41-2.45,.72-4.92,1.17-7.36,.19-.99,.68-1.92,.98-2.89,.2-.63,.3-1.29,.44-1.94-.39,.18-.59,.42-.69,.69-.45,1.18-.86,2.37-1.33,3.55-.39,.99-.83,1.97-1.28,2.94-.48,1.04-2.92,7.81-3.34,9.41-.59,2.28-2.02,4.18-2.58,6.45-.02,.1-.11,.18-.16,.27-.37,.73-.8,1.43-1.1,2.18-.66,1.68-1.24,3.38-1.85,5.08l.04,.09-.07-.12Z"/></g><g><path class="cls-1" d="M404.29,57.51l7.94-.23c1.91-.31,3.23-2.03,2.95-3.85s-2.06-3.05-3.97-2.74l-7.72,1.51c-1.4,.23-2.36,1.6-2.14,3.07,.22,1.46,1.54,2.47,2.94,2.24Z"/><path class="cls-1" d="M462.86,52.83c-1.93,.08-3.44,1.87-3.36,3.98l1.47,19.55c.06,1.56,1.37,2.77,2.93,2.71,1.56-.06,2.77-1.37,2.71-2.93l-.1-19.63c-.08-2.12-1.7-3.77-3.64-3.68Z"/><path class="cls-1" d="M366.13,53.98c-1.93,.08-3.44,1.87-3.36,3.98l1.47,19.55c.06,1.56,1.37,2.77,2.93,2.71,1.56-.06,2.77-1.37,2.71-2.93l-.1-19.63c-.08-2.12-1.7-3.77-3.64-3.68Z"/><path class="cls-1" d="M602.21,72.61c-.4-2.64-1.6-5.46-3.56-7.57,1.51-3.6,1.1-7.12,.91-8.77-.04-.34-.09-.81-.1-.96,0-3.2-1.08-6.18-3.08-8.47,1.19-2.05,1.89-4.37,1.84-6.8-.1-5.31-3.83-11.7-14.01-12.24-1.99-.11-3.91-.16-5.85-.16-4.69,0-9.48,.3-14.65,.91-7.7,.92-14.32,4.29-19.4,9.49-3.13-6.3-9.08-9.76-17.28-9.76-3.66,0-7.42,.65-11.06,1.27-1.15,.2-2.32,.4-3.49,.58-12.54,1.92-20.83,6.73-26.07,11.22-4.69-9.94-15.27-16.89-27.54-16.89-9.83,0-18.57,4.46-24.08,11.35-4.78-3.99-11.65-6.28-19.79-6.28-2.51,0-5.09,.22-7.67,.66-7.1,1.21-14.9,3.25-20.13,8.07-5.41-7.62-14.62-12.65-25.06-12.65-7.83,0-14.96,2.83-20.33,7.46-3.33-3.12-7.94-4.77-13.62-4.77-3.66,0-7.42,.65-11.06,1.27-1.15,.2-2.32,.4-3.49,.58-15.23,2.33-24.19,8.92-29.03,14.03-5.94,6.28-9.35,14.15-9.35,21.58,0,.57-.01,1.21-.02,1.92-.14,7.76-.39,22.21,9.27,32.04,5.65,5.76,13.48,8.67,23.25,8.67h.48c6.8-.07,11.51-2.43,14.87-5.48,3.47,4.01,8.13,6.44,13.33,6.44,2.46,0,5.02-.56,7.48-1.59,3.07,3.42,7.67,5.54,12.75,5.54,4,0,7.71-1.33,10.61-3.58,2.45,2.01,5.53,3.19,8.86,3.19,5.91,0,10.99-3.77,13.2-9.13,3.54,2.94,7.89,4.63,12.67,4.63,5.19,0,10.25-2.61,14.46-6.08,3.51,4.37,8.38,7.04,13.83,7.04,3.39,0,6.96-1.05,10.18-2.95,3.07,3.53,7.74,5.73,12.91,5.73,4,0,7.71-1.33,10.61-3.58,2.45,2.01,5.53,3.19,8.86,3.19,6.05,0,11.24-3.95,13.35-9.53,5.33,4.07,12.16,6.14,20.38,6.14h.48c6.8-.07,11.51-2.43,14.87-5.48,3.47,4.01,8.13,6.44,13.33,6.44,3.36,0,6.91-1.04,10.12-2.91,2.93,1.67,6.31,2.54,9.99,2.54h0c3.96,0,8.22-.96,13.03-2.94,24.26-10,35.63-21.24,33.79-33.41Zm-258.61,24.45c-2.19,1.78-4.95,2.86-7.16,2.86-5.36,0-10.09-6.47-10.11-14.97-1.49-.19-3.17,.55-3.94,2.3-2.76,5.47-5.17,11.62-14.25,11.71-25.91,.25-23.48-24.57-23.48-33.23s7.95-22.88,30.4-26.31c11.74-1.8,23.05-5.56,23.52,10,.56,18.67-7.56,16.73-17.43,18.52-5.26,.96-11.22,1.26-15.94-.31,2.55,3.65,8.63,4.57,16.48,5.21,5.34,.43,10.32-.36,14.09-1.88,1.11,2.56,3.74,8.42,4.5,10.5,1.09,2.96,3.62,12.98,3.62,12.98,.23,1.09,.08,1.94-.31,2.62Zm37.5,.74c0,3.14-2.22,5.69-4.96,5.69-2.43,0-4.45-2.01-4.87-4.66l-1.37-6.35c-.21-.87-.98-1.47-1.87-1.47h-1.36c-.95,0-1.76,.69-1.91,1.64l-.94,6.14h-.03c-.58,2.89-3.54,5.09-7.12,5.09s-6.59-2.24-7.13-5.18c0,0-8.1-39.2-8.1-44.72,0-10.48,9.28-18.98,20.72-18.98s20.72,8.5,20.72,18.98c0,.22-1.77,43.83-1.77,43.83Zm56.36-.71c-2.19,1.78-4.95,2.86-7.16,2.86-5.36,0-10.09-6.47-10.11-14.97-1.49-.19-2.13,.6-2.36,1.03-2.03,4.89-10.11,12.99-15.83,12.99-7.62,0-12.24-7.83-12.42-16.18,0,0,.62-26.7,.94-30.93h.03c.44-5.63,3.81-9.95,18.36-12.43,11.71-2,22.24,1.73,23.52,10,1.26,8.11-7.56,16.73-17.43,18.52-5.26,.96-11.22,1.26-15.94-.31,2.55,3.65,8.63,4.57,16.48,5.21,5.34,.43,10.32-.36,14.09-1.88,1.11,2.56,3.74,8.42,4.5,10.5,1.09,2.96,3.62,12.98,3.62,12.98,.23,1.09,.08,1.94-.31,2.62Zm40.37-.44c0,3.14-2.22,5.69-4.96,5.69-2.43,0-4.45-2.01-4.87-4.66l-1.37-6.35c-.21-.87-.98-1.47-1.87-1.47h-1.36c-.95,0-1.76,.69-1.91,1.64l-.94,6.14h-.03c-.58,2.89-3.54,5.09-7.12,5.09s-6.59-2.24-7.13-5.18c0,0-8.1-39.2-8.1-44.72,0-10.48,9.27-18.98,20.72-18.98s20.72,8.5,20.72,18.98c0,.22-1.77,43.83-1.77,43.83Zm64.61,.4c-2.19,1.78-4.95,2.86-7.16,2.86-5.36,0-10.09-6.47-10.11-14.97-1.49-.19-3.17,.55-3.94,2.3-2.76,5.47-5.17,11.62-14.25,11.71-25.91,.25-23.48-24.57-23.48-33.23s7.95-22.88,30.4-26.31c11.74-1.8,23.05-5.56,23.52,10,.56,18.67-7.56,16.73-17.43,18.52-5.26,.96-11.22,1.26-15.94-.31,2.55,3.65,8.63,4.57,16.48,5.21,5.34,.43,10.32-.36,14.09-1.88,1.11,2.56,3.74,8.42,4.5,10.5,1.09,2.96,3.62,12.98,3.62,12.98,.23,1.09,.08,1.94-.31,2.62Zm22.4,.25c-23.03,9.49-21.97-13.3-21.97-29.72s8.58-28.12,21.97-29.72c8.3-.99,14.38-.94,18.88-.7,9.4,.5,3.74,8.11-.62,8.51-5.23,.48-14.47,2.34-16.69,2.8-2.14,.44-7.28,1.82-7.43,3.26-.14,1.38,1.42,1.5,3.36,1.32,0,0,22.58-1.1,24.08-1.14,2.17-.06,3.63,1.19,3.63,3.36,0,3.35,1.89,6.66-3.62,9.05-1.11,.48-8.31,2.32-12.45,3.27-2.49,.57-14.75,2.27-14.54,4.46,.15,1.6,2.94,1.67,5.2,1.46,0,0,21.79-2.8,26.74-2.36,.81,.07,9.91,11.13-26.55,26.16Z"/></g></g></g></svg>