<?xml version="1.0" standalone="no"?>
<!DOCTYPE svg PUBLIC "-//W3C//DTD SVG 20010904//EN"
 "http://www.w3.org/TR/2001/REC-SVG-20010904/DTD/svg10.dtd">
<svg version="1.0" xmlns="http://www.w3.org/2000/svg"
 width="700.000000pt" height="700.000000pt" viewBox="0 0 700.000000 700.000000"
 preserveAspectRatio="xMidYMid meet">
<metadata>
Created by potrace 1.14, written by Peter Selinger 2001-2017
</metadata>
<g transform="translate(0.000000,700.000000) scale(0.100000,-0.100000)"
fill="#000000" stroke="none">
<path d="M3280 6994 c-19 -2 -84 -9 -145 -14 -639 -62 -1264 -315 -1795 -726
-149 -115 -481 -446 -595 -594 -410 -532 -653 -1132 -727 -1795 -17 -155 -17
-575 0 -730 75 -673 332 -1300 748 -1820 114 -143 339 -372 484 -494 534 -449
1166 -718 1875 -801 155 -18 460 -24 620 -11 725 57 1354 300 1922 743 138
107 389 351 512 498 451 538 714 1155 803 1885 16 135 16 591 0 730 -86 724
-351 1346 -803 1885 -127 151 -376 393 -519 504 -524 406 -1092 640 -1750 722
-117 15 -552 27 -630 18z m1980 -890 c0 -30 -157 -197 -285 -302 -44 -36 -109
-93 -145 -127 -36 -33 -81 -72 -100 -87 -28 -22 -14 -18 70 21 116 54 186 78
197 67 10 -10 -268 -287 -362 -360 -44 -34 -156 -116 -250 -181 -93 -65 -215
-153 -270 -195 -96 -74 -197 -145 -1070 -757 -214 -150 -391 -280 -393 -288
-3 -13 96 -526 103 -533 7 -7 55 25 225 148 335 243 626 428 763 487 34 14
145 52 246 84 145 46 187 56 198 47 8 -6 12 -20 10 -30 -7 -27 4 -23 101 32
99 56 409 189 462 198 l35 5 -30 -39 c-98 -131 -210 -234 -379 -349 -99 -68
-103 -71 -89 -92 9 -13 11 -27 6 -36 -18 -32 -493 -472 -572 -530 -47 -34
-105 -80 -130 -103 -84 -75 -254 -200 -431 -317 -96 -63 -197 -135 -224 -159
l-50 -44 43 -195 c23 -107 80 -377 126 -601 153 -740 188 -952 183 -1129 l-3
-104 -30 44 -30 45 -5 -121 c-3 -67 -8 -124 -11 -128 -19 -18 -130 215 -148
310 -16 86 -43 85 -56 -2 -7 -48 -26 -56 -49 -20 -16 24 -95 207 -132 304 -36
95 -167 624 -242 980 -38 178 -71 326 -74 329 -3 3 -93 -31 -199 -75 -180 -74
-195 -79 -224 -67 -21 9 -31 20 -33 38 -3 22 6 31 60 64 35 20 65 39 68 41 2
2 -10 15 -28 29 l-32 25 6 77 c7 83 15 98 76 136 97 59 168 109 168 117 0 13
2 13 -98 -31 -49 -22 -94 -40 -100 -40 -19 0 -62 42 -62 62 0 37 65 110 183
205 111 89 117 96 117 131 0 36 -70 583 -76 591 -6 7 -69 -20 -89 -38 -21 -21
-302 -185 -500 -294 -66 -36 -166 -84 -223 -107 -57 -22 -136 -62 -175 -89
-109 -73 -150 -91 -206 -91 -46 0 -55 -4 -126 -62 -91 -75 -137 -108 -147
-108 -4 0 -8 11 -8 24 0 17 38 61 143 162 120 118 467 423 602 531 22 17 37
35 33 39 -4 4 -39 -2 -78 -14 -82 -25 -100 -21 -100 20 0 41 36 73 165 149 61
35 139 91 175 125 65 61 173 143 351 266 121 84 124 90 116 250 -6 134 0 161
42 198 l28 25 -14 128 c-8 70 -12 138 -9 151 7 29 61 54 85 39 9 -5 46 -97 86
-217 39 -113 75 -214 81 -223 9 -15 21 -10 100 42 49 33 177 125 284 205 217
162 487 352 688 485 171 112 493 296 512 293 22 -4 24 -45 5 -74 -9 -14 -14
-28 -11 -32 3 -3 88 36 189 86 148 74 219 117 376 230 234 168 536 352 577
352 8 0 14 -11 14 -26z"/>
</g>
</svg>
